<?xml version="1.0" encoding="utf-8"?>
<!-- Generator: Adobe Illustrator 26.3.1, SVG Export Plug-In . SVG Version: 6.00 Build 0)  -->
<svg version="1.1" id="Layer_1" xmlns="http://www.w3.org/2000/svg" xmlns:xlink="http://www.w3.org/1999/xlink" x="0px" y="0px"
	 viewBox="0 0 1080 1080" style="enable-background:new 0 0 1080 1080;" xml:space="preserve">
<style type="text/css">
	.st0{fill:#662483;}
	.st1{fill:#FFFFFF;}
	.st2{fill:#575756;}
	.st3{fill:#1D1D1B;}
	.st4{fill:#C6C6C6;}
</style>
<g id="BG">
	<rect y="541.4" class="st0" width="1080" height="540"/>
	<rect y="3.8" class="st1" width="1080" height="540"/>
</g>
<g id="Graphics">
	<path class="st2" d="M421.6,344.9c-0.5-0.1-1,0.2-1.2,0.6l-17.8,26.5l-17.8-26.5c-0.2-0.2-0.3-0.3-0.6-0.5
		c-0.2-0.1-0.4-0.1-0.6-0.1c-0.4,0-0.7,0.1-0.9,0.4c-0.2,0.2-0.3,0.6-0.3,0.9v42.4c0,0.3,0.1,0.7,0.4,0.9c0.2,0.3,0.6,0.4,0.9,0.4
		c0.3,0,0.7-0.1,0.9-0.4c0.2-0.2,0.4-0.6,0.4-0.9v-38.5l16.6,25.1c0.1,0.2,0.2,0.3,0.4,0.4c0.2,0.1,0.4,0.1,0.6,0.1
		c0.2,0,0.4,0,0.5-0.1c0.2-0.1,0.3-0.2,0.4-0.4l16.6-25.1v38.5c0,0.3,0.1,0.7,0.4,0.9c0.3,0.3,0.6,0.4,1,0.4c0.3,0,0.7-0.1,0.9-0.4
		c0.3-0.2,0.4-0.6,0.4-0.9v-42.4c0-0.3-0.1-0.6-0.3-0.9C422.3,345.1,422,344.9,421.6,344.9z"/>
	<path class="st2" d="M461.1,357.8c-0.4,0-0.7,0.1-0.9,0.4c-0.2,0.2-0.4,0.6-0.4,0.9v5.7c-1.4-3.2-3.9-5.7-7.1-7
		c-4.2-1.7-9-1.2-12.8,1.2c-2.3,1.5-4.1,3.5-5.3,5.9c-1.4,2.7-2,5.6-2,8.6c0,3,0.6,6,1.9,8.7c1.2,2.5,3,4.6,5.3,6.1
		c2.3,1.5,5,2.3,7.7,2.2c1.8,0,3.6-0.3,5.3-1.1c1.6-0.7,3-1.6,4.2-2.8c1.2-1.1,2.1-2.4,2.8-3.9v5.8c0,0.3,0.1,0.7,0.4,0.9
		c0.5,0.5,1.3,0.5,1.8,0c0,0,0,0,0,0c0.2-0.2,0.4-0.6,0.4-0.9v-29.5c0-0.3-0.1-0.7-0.4-0.9C461.8,357.9,461.4,357.8,461.1,357.8z
		 M458.5,381c-1,2.1-2.5,3.9-4.4,5.2c-3.9,2.5-8.9,2.5-12.9,0c-1.9-1.3-3.5-3.1-4.4-5.2c-1.1-2.3-1.6-4.9-1.6-7.5
		c0-2.6,0.5-5.1,1.6-7.4c1-2,2.6-3.8,4.5-5c1.9-1.2,4.1-1.9,6.4-1.8c2.3-0.1,4.5,0.6,6.4,1.8c1.9,1.3,3.4,3.1,4.4,5.1
		c1.1,2.3,1.6,4.7,1.6,7.2C460.1,376.1,459.6,378.6,458.5,381z"/>
	<path class="st2" d="M493.5,359.1c-1.9-1.2-4.1-1.8-6.4-1.7c-1.6,0-3.2,0.3-4.6,0.9c-1.5,0.6-3,1.5-4.2,2.6c-1,0.9-1.9,1.9-2.6,3
		v-20.3c0-0.3-0.1-0.7-0.4-0.9c-0.2-0.3-0.6-0.4-0.9-0.4c-0.3,0-0.7,0.1-0.9,0.4c-0.2,0.2-0.4,0.6-0.4,0.9v45c0,0.3,0.1,0.7,0.4,0.9
		c0.5,0.5,1.3,0.5,1.8,0c0,0,0,0,0,0c0.2-0.2,0.4-0.6,0.4-0.9v-18.8c0-1.8,0.6-3.6,1.7-5c1.2-1.5,2.6-2.7,4.3-3.6
		c1.7-0.9,3.5-1.3,5.4-1.4c1.8-0.1,3.6,0.4,5.1,1.4c1.3,0.9,2.3,2.1,2.8,3.6c0.6,1.6,0.9,3.3,0.9,5v18.8c0,0.3,0.1,0.7,0.4,0.9
		c0.5,0.5,1.3,0.5,1.8,0c0,0,0,0,0,0c0.2-0.2,0.4-0.6,0.4-0.9v-18.8c0-2.1-0.4-4.3-1.3-6.2C496.5,361.7,495.1,360.2,493.5,359.1z"/>
	<path class="st3" d="M510.5,347.8c-0.6,0-1.2,0.2-1.7,0.6c-0.4,0.4-0.7,0.9-0.6,1.5v0.5c0,0.6,0.2,1.1,0.6,1.5
		c0.5,0.4,1,0.6,1.6,0.6c0.6,0,1.1-0.2,1.6-0.6c0.4-0.4,0.6-0.9,0.6-1.5v-0.5c0-0.6-0.2-1.1-0.6-1.5
		C511.6,348,511.1,347.8,510.5,347.8z"/>
	<path class="st2" d="M510.5,356.8c-0.3,0-0.7,0.1-0.9,0.4c-0.2,0.2-0.4,0.6-0.4,0.9v30.5c0,0.3,0.1,0.7,0.4,0.9
		c0.5,0.5,1.3,0.5,1.8,0c0,0,0,0,0,0c0.2-0.2,0.4-0.6,0.4-0.9V358c0-0.3-0.1-0.7-0.4-0.9C511.2,356.9,510.8,356.7,510.5,356.8z"/>
	<path class="st2" d="M549,342.3c-0.4,0-0.7,0.1-0.9,0.4c-0.2,0.2-0.4,0.6-0.3,0.9v21.3c0,0,0-0.1-0.1-0.2c-1.4-3.2-4-5.7-7.2-7
		c-1.6-0.7-3.3-1-5-1c-2.7,0-5.4,0.7-7.6,2.2c-2.3,1.5-4.1,3.6-5.3,6c-2.6,5.5-2.6,11.8,0,17.3c1.2,2.4,3.1,4.5,5.3,6
		c2.3,1.5,4.9,2.3,7.6,2.2c1.8,0,3.6-0.4,5.3-1.1c1.6-0.7,3-1.7,4.3-2.9c1.2-1.2,2.1-2.5,2.8-4v6.1c0,0.3,0.1,0.7,0.3,0.9
		c0.2,0.3,0.6,0.4,0.9,0.4c0.7,0,1.3-0.6,1.3-1.3v-45c0-0.3-0.1-0.7-0.4-0.9C549.7,342.4,549.4,342.3,549,342.3z M542,386.2
		c-1.9,1.3-4.2,1.9-6.5,1.9c-2.3,0-4.5-0.6-6.4-1.9c-1.9-1.3-3.5-3.1-4.5-5.2c-2.2-4.7-2.2-10.1,0-14.8c1-2.1,2.6-3.8,4.5-5.1
		c3.9-2.5,8.9-2.5,12.8,0c1.9,1.3,3.4,3,4.4,5.1c1.1,2.3,1.6,4.9,1.6,7.4c0,2.6-0.5,5.1-1.6,7.5C545.4,383.1,543.9,384.9,542,386.2
		L542,386.2z"/>
	<path class="st2" d="M582.9,359c-5-3-11.2-3-16.2,0c-2.4,1.5-4.4,3.5-5.7,6c-2.8,5.4-2.8,11.8,0,17.2c1.3,2.5,3.3,4.5,5.7,6
		c5,3,11.2,3,16.2,0c2.4-1.5,4.3-3.5,5.6-6c2.8-5.4,2.8-11.8,0-17.2C587.2,362.5,585.3,360.5,582.9,359z M586.3,381
		c-1.1,2.1-2.7,3.9-4.7,5.1c-4.2,2.5-9.4,2.5-13.7,0c-2-1.3-3.7-3-4.8-5.1c-2.3-4.7-2.3-10.1,0-14.8c1.1-2.1,2.8-3.9,4.8-5.1
		c4.2-2.5,9.4-2.5,13.7,0c2,1.3,3.6,3,4.7,5.1C588.6,370.9,588.6,376.4,586.3,381L586.3,381z"/>
	<path class="st2" d="M600.9,342.3c-0.3,0-0.7,0.1-0.9,0.4c-0.2,0.2-0.4,0.6-0.4,0.9v45c0,0.3,0.1,0.7,0.3,0.9
		c0.2,0.3,0.6,0.4,0.9,0.4c0.3,0,0.7-0.1,0.9-0.4c0.2-0.2,0.4-0.6,0.4-0.9v-45c0-0.3-0.1-0.7-0.4-0.9
		C601.6,342.4,601.2,342.3,600.9,342.3z"/>
	<path class="st2" d="M663.4,344.9c-0.4,0-0.7,0.1-0.9,0.4c-0.2,0.2-0.4,0.6-0.4,0.9v27.8c0,2.5-0.6,4.9-1.9,7
		c-1.2,2.1-2.9,3.8-5,5.1c-4.3,2.5-9.7,2.5-14,0c-2.1-1.2-3.8-3-5-5.1c-1.2-2.1-1.9-4.5-1.9-7v-27.8c0-0.3-0.1-0.7-0.4-0.9
		c-0.3-0.3-0.6-0.4-1-0.4c-0.4,0-0.7,0.1-1,0.4c-0.2,0.2-0.4,0.6-0.4,0.9v27.8c0,2.9,0.7,5.8,2.2,8.3c1.5,2.5,3.5,4.5,6,6
		c2.5,1.5,5.4,2.3,8.3,2.2c2.9,0,5.8-0.7,8.3-2.2c2.5-1.5,4.5-3.5,6-6c1.5-2.5,2.3-5.4,2.2-8.3v-27.8c0-0.3-0.1-0.7-0.3-0.9
		C664.2,345,663.8,344.8,663.4,344.9z"/>
	<path class="st2" d="M697.7,358.4c-2-1.2-4.3-1.7-6.6-1.6c-1.6,0-3.3,0.3-4.8,0.9c-1.6,0.6-3.1,1.5-4.4,2.6c-1.1,0.9-2.1,2-2.8,3.1
		v-4.3c0-0.3-0.1-0.7-0.3-0.9c-0.2-0.3-0.6-0.4-0.9-0.4c-0.3,0-0.7,0.1-0.9,0.4c-0.3,0.2-0.4,0.6-0.4,0.9v29.5
		c0,0.3,0.1,0.7,0.4,0.9c0.2,0.3,0.6,0.4,0.9,0.4c0.7,0,1.3-0.6,1.3-1.3v-19.4c0-1.8,0.6-3.6,1.8-5c1.2-1.5,2.7-2.7,4.5-3.6
		c1.7-0.9,3.6-1.3,5.5-1.4c1.9-0.1,3.7,0.4,5.3,1.4c1.3,0.9,2.4,2.1,3,3.6c0.6,1.6,1,3.3,0.9,5v19.4c0,0.3,0.1,0.7,0.3,0.9
		c0.5,0.5,1.3,0.5,1.8,0c0,0,0,0,0,0c0.2-0.2,0.4-0.6,0.4-0.9v-19.7c0-2.1-0.4-4.2-1.2-6.2C700.6,360.9,699.3,359.4,697.7,358.4z"/>
	<path class="st2" d="M714.5,356.8c-0.7,0-1.3,0.6-1.3,1.3v30.5c0,0.3,0.1,0.7,0.3,0.9c0.2,0.3,0.6,0.4,0.9,0.4
		c0.7,0,1.3-0.6,1.3-1.3V358c0-0.3-0.1-0.7-0.4-0.9C715.2,356.9,714.9,356.7,714.5,356.8z"/>
	<path class="st3" d="M714.6,347.8c-0.6,0-1.2,0.2-1.7,0.6c-0.4,0.4-0.7,0.9-0.7,1.5v0.5c0,0.6,0.2,1.1,0.6,1.5
		c0.5,0.4,1,0.6,1.6,0.6c0.6,0,1.1-0.2,1.6-0.6c0.4-0.4,0.6-0.9,0.6-1.5v-0.5c0-0.6-0.2-1.1-0.6-1.5
		C715.7,348,715.1,347.8,714.6,347.8z"/>
	<path class="st2" d="M751.5,356.9c-0.2-0.1-0.5-0.2-0.8-0.2c-0.6-0.1-1.1,0.3-1.3,0.8l-11.7,27.9l-11.7-27.9
		c-0.1-0.3-0.3-0.5-0.5-0.6c-0.5-0.3-1.2-0.3-1.7,0.2c-0.2,0.3-0.3,0.6-0.3,0.9c0,0.1,0,0.2,0,0.3c0,0.1,0.1,0.2,0.1,0.3l12.9,30.5
		c0.1,0.3,0.2,0.5,0.5,0.6c0.2,0.1,0.5,0.2,0.7,0.2c0.5,0,1-0.3,1.2-0.8l12.8-30.6l0.1-0.3c0-0.2,0.1-0.3,0.1-0.5
		C752,357.3,751.8,357,751.5,356.9z"/>
	<path class="st2" d="M785.2,372.8c0.3,0,0.7-0.2,0.9-0.4c0.2-0.2,0.4-0.6,0.4-0.9c0-2.2-0.5-4.5-1.4-6.5c-0.8-1.7-1.9-3.3-3.3-4.6
		c-1.3-1.2-2.9-2.1-4.6-2.7c-1.7-0.6-3.5-0.9-5.3-0.9c-2.5,0-4.9,0.7-7,2c-2.3,1.4-4.1,3.4-5.4,5.8c-1.5,2.8-2.2,6-2.1,9.2
		c-0.1,3.1,0.7,6.1,2.1,8.8c1.4,2.4,3.4,4.5,5.8,5.8c2.6,1.4,5.5,2.1,8.5,2.1c2.4,0,4.8-0.7,6.9-1.9c2-1.2,3.7-2.7,5.1-4.5
		c0.2-0.2,0.3-0.5,0.2-0.8c0-0.3-0.1-0.6-0.3-0.8c-0.2-0.2-0.5-0.4-0.8-0.4c-0.4,0-0.8,0.2-1.1,0.6c-0.7,1-1.5,1.9-2.5,2.6
		c-1,0.8-2.2,1.5-3.5,2c-1.3,0.5-2.7,0.7-4.1,0.7c-2.7,0.1-5.4-0.6-7.7-2c-2-1.3-3.7-3.1-4.7-5.3c-1.1-2.2-1.6-4.7-1.6-7.2
		c0-0.3,0-0.5,0-0.8L785.2,372.8z M764,362.8c1.1-1.1,2.5-2,3.9-2.6c1.3-0.6,2.7-0.8,4-0.9c1.8,0,3.7,0.4,5.3,1.2
		c1.7,0.8,3.2,2,4.4,3.5c1.3,1.7,2,3.6,2.2,5.7v0.6h-23.6c0.2-1,0.5-2,0.9-3C761.7,365.7,762.7,364.1,764,362.8z"/>
	<path class="st2" d="M811.6,357c-0.6-0.2-1.3-0.3-1.9-0.3c-1.9,0-3.9,0.4-5.6,1.4c-1.6,0.9-3,2.1-4.1,3.6c-1,1.3-1.7,2.7-2.3,4.2
		v-6.9c0-0.3-0.1-0.7-0.3-0.9c-0.5-0.5-1.3-0.5-1.9,0c-0.2,0.2-0.4,0.5-0.4,0.9v29.5c0,0.3,0.1,0.7,0.3,0.9c0.2,0.3,0.6,0.4,0.9,0.4
		c0.3,0,0.7-0.1,0.9-0.4c0.2-0.2,0.4-0.6,0.4-0.9v-16.1c0-1.6,0.4-3.2,1-4.6c0.6-1.6,1.5-3.1,2.6-4.4c1-1.3,2.2-2.4,3.6-3.2
		c1.2-0.8,2.6-1.2,4-1.2c0.5,0,1.1,0.1,1.6,0.3c0.3,0.2,0.6,0.3,0.9,0.3c0.3,0,0.6-0.1,0.8-0.4c0.2-0.3,0.3-0.6,0.3-1
		C812.7,357.6,812.2,357.1,811.6,357z"/>
	<path class="st2" d="M837.3,375.3c-1-0.7-2.1-1.3-3.2-1.7c-1.3-0.5-2.6-0.9-4-1.2c-1.6-0.4-3.2-0.9-4.7-1.5
		c-1.3-0.5-2.4-1.2-3.3-2.1c-0.9-0.9-1.3-2.1-1.4-3.3c-0.1-1.3,0.4-2.5,1.2-3.5c0.8-0.9,1.8-1.7,3-2.1c1.3-0.5,2.6-0.7,4-0.7
		c1.6,0,3.2,0.3,4.7,0.9c1.5,0.6,2.8,1.6,3.9,2.8c0.2,0.2,0.5,0.4,0.8,0.4c0.3,0,0.6-0.1,0.8-0.3c0.3-0.3,0.5-0.6,0.5-1
		c0-0.4-0.2-0.7-0.5-0.9c-0.9-1.1-2-1.9-3.2-2.6c-1.1-0.6-2.3-1-3.5-1.3c-1.1-0.3-2.2-0.4-3.3-0.4c-1.9,0-3.9,0.3-5.7,1.1
		c-1.5,0.7-2.8,1.7-3.8,3.1c-0.9,1.3-1.4,2.9-1.3,4.5c0,1.3,0.3,2.6,0.9,3.7c0.6,1.1,1.4,2,2.4,2.7c1.1,0.8,2.3,1.4,3.6,1.9
		c1.3,0.5,2.8,0.9,4.3,1.3c1.4,0.3,2.7,0.8,4,1.3c1.2,0.5,2.3,1.2,3.2,2.1c1.7,2,1.7,5,0,7c-0.9,1-2,1.7-3.2,2.1
		c-1.3,0.5-2.7,0.7-4.1,0.7c-2.1,0.1-4.3-0.5-6.1-1.5c-1.7-0.9-3.2-2.3-4.3-3.9c-0.2-0.3-0.6-0.5-0.9-0.5c-0.7,0-1.2,0.4-1.3,1.1
		c0,0.4,0.2,0.9,0.4,1.2c1.5,1.9,3.4,3.4,5.6,4.4c2,0.9,4.2,1.4,6.4,1.4c2,0,4-0.3,5.8-1.1c1.6-0.6,3-1.7,4-3c1-1.4,1.5-3,1.5-4.7
		c0-1.3-0.2-2.7-0.8-3.9C839,376.9,838.2,376,837.3,375.3z"/>
	<path class="st2" d="M850,356.8c-0.3,0-0.7,0.1-0.9,0.4c-0.2,0.2-0.4,0.6-0.4,0.9v30.5c0,0.3,0.1,0.7,0.3,0.9
		c0.5,0.5,1.3,0.5,1.8,0c0,0,0,0,0,0c0.2-0.2,0.4-0.6,0.4-0.9V358c0-0.3-0.1-0.7-0.3-0.9C850.7,356.9,850.4,356.7,850,356.8z"/>
	<path class="st3" d="M850.1,347.8c-0.6,0-1.2,0.2-1.7,0.6c-0.4,0.4-0.7,0.9-0.7,1.5v0.5c0,0.6,0.2,1.1,0.6,1.5
		c0.5,0.4,1,0.6,1.6,0.6c0.6,0,1.1-0.2,1.6-0.6c0.4-0.4,0.6-0.9,0.6-1.5v-0.5c0-0.6-0.2-1.1-0.6-1.5
		C851.2,348,850.6,347.8,850.1,347.8z"/>
	<path class="st2" d="M873.9,357.5h-7.1v-8.2c0-0.3-0.1-0.7-0.3-0.9c-0.5-0.5-1.3-0.5-1.9,0c-0.2,0.2-0.4,0.5-0.4,0.9v8.2H859
		c-0.3,0-0.6,0.1-0.8,0.4c-0.3,0.2-0.4,0.5-0.4,0.9c0,0.3,0.2,0.6,0.4,0.8c0.2,0.2,0.5,0.4,0.8,0.4h5.3v23c-0.1,1.5,0.2,2.9,0.8,4.3
		c0.4,0.9,1.1,1.6,1.9,2c0.7,0.3,1.4,0.5,2.1,0.6h1.4c0.6,0,1.3-0.1,1.8-0.4c0.4-0.2,0.7-0.6,0.7-1c0-0.3-0.1-0.6-0.3-0.8
		c-0.2-0.2-0.5-0.4-0.8-0.4c-0.3,0-0.5,0-0.8,0.1c-0.2,0.1-0.5,0.1-0.8,0.1c-0.5,0-1.1-0.1-1.6-0.3c-0.6-0.2-1.1-0.7-1.4-1.3
		c-0.4-1-0.6-2-0.5-3.1V360h7.1c0.7,0,1.2-0.5,1.2-1.2c0,0,0,0,0,0c0-0.3-0.1-0.6-0.3-0.8C874.6,357.7,874.2,357.5,873.9,357.5z"/>
	<path class="st2" d="M906.4,356.8c-0.4,0-0.7,0.1-0.9,0.4c-0.2,0.2-0.4,0.6-0.3,0.9v20c0,1.7-0.6,3.4-1.7,4.8
		c-1.1,1.6-2.6,2.8-4.3,3.8c-1.7,0.9-3.6,1.4-5.5,1.4c-3.2,0-5.5-0.9-6.8-2.7c-1.4-2.1-2.1-4.7-2-7.3V358c0-0.3-0.1-0.7-0.4-0.9
		c-0.2-0.3-0.6-0.4-0.9-0.4c-0.4,0-0.7,0.1-0.9,0.4c-0.2,0.2-0.4,0.6-0.3,0.9v20.1c-0.1,2.2,0.4,4.4,1.2,6.5
		c0.8,1.8,2.1,3.3,3.7,4.3c2,1.1,4.2,1.7,6.5,1.6c1.6,0,3.2-0.3,4.7-0.9c1.5-0.6,2.9-1.5,4.1-2.5c1.1-0.9,2-2,2.6-3.3v2.9
		c0,2.5-0.5,4.9-1.6,7.1c-1,2-2.5,3.7-4.4,4.8c-2,1.2-4.2,1.8-6.5,1.7c-1.7,0-3.4-0.3-5-0.9c-1.1-0.4-2.2-1-3.3-1.5
		c-0.3-0.2-0.6-0.3-0.9-0.1c-0.3,0.1-0.6,0.4-0.7,0.7c-0.2,0.3-0.2,0.7,0,1c0.2,0.3,0.4,0.6,0.7,0.8c1.2,0.8,2.5,1.4,3.8,1.7
		c1.7,0.5,3.5,0.7,5.3,0.7c2.7,0.1,5.4-0.6,7.8-1.9c2.3-1.3,4.2-3.2,5.4-5.5c1.4-2.6,2.1-5.6,2-8.5V358c0-0.3-0.1-0.7-0.3-0.9
		C907.1,356.9,906.8,356.7,906.4,356.8z"/>
	<path class="st3" d="M431.1,208.6c-1.2-2.2-2.9-4.1-4.9-5.6c-1.8-1.3-3.8-2.2-5.9-2.9c0.6-0.2,1.1-0.5,1.7-0.8
		c2.4-1.3,4.4-3.3,5.7-5.7c1.3-2.4,2-5.1,1.9-7.8c0-5.3-1.5-9.5-4.6-12.4c-3.1-2.9-7.5-4.4-13.2-4.4h-25.1c-1.1,0-2.1,0.4-2.8,1.2
		c-0.8,0.7-1.2,1.7-1.2,2.8v59.8c0,2.2,1.8,4,4,4H412c2.6,0,5.1-0.3,7.6-1c2.4-0.6,4.7-1.7,6.8-3.2c2.1-1.6,3.8-3.6,4.9-6
		c1.3-2.9,1.9-6.1,1.8-9.3C433.2,214.2,432.5,211.2,431.1,208.6z M418.4,179.2c1.8,1.8,2.8,4.3,2.8,7.6c0,3.6-1,6.2-3,8.1
		c-2,1.8-4.6,2.8-7.3,2.8h-19.7v-21.1h19.6C414,176.6,416.5,177.4,418.4,179.2z M421,226.1c-2.6,2-5.9,3-9.2,2.9h-20.7v-23.7h20.3
		c2.2,0,4.3,0.3,6.3,1c2,0.6,3.7,1.9,5,3.5c1.3,1.7,1.9,4.1,1.9,7.2C424.6,221.2,423.4,224.2,421,226.1z"/>
	<path class="st3" d="M448,179.4c1.3,0.1,2.5-0.3,3.5-1c0.9-0.8,1.3-1.9,1.2-3V174c0.1-1.1-0.3-2.2-1.2-3c-1-0.7-2.2-1.1-3.5-1
		c-1.3-0.1-2.5,0.3-3.6,1c-0.9,0.7-1.3,1.9-1.2,3v1.4c-0.1,1.1,0.3,2.2,1.2,3C445.5,179.1,446.7,179.4,448,179.4z"/>
	<path class="st3" d="M448.1,185.8c-1.1,0-2.1,0.4-2.9,1.2c-0.7,0.7-1.1,1.8-1.1,2.8v42.8c0,1,0.4,2.1,1.1,2.8
		c0.7,0.8,1.8,1.2,2.9,1.2c1,0,2-0.4,2.8-1.2c0.7-0.7,1.1-1.8,1.1-2.8v-42.8c0-1-0.4-2.1-1.1-2.8
		C450.2,186.2,449.2,185.8,448.1,185.8z"/>
	<path class="st3" d="M475.6,234.2c7.9,4.5,17.6,4.5,25.5,0c3.8-2.2,6.9-5.5,9-9.3c4.4-8.4,4.4-18.5,0-26.9c-2.1-3.8-5.2-7-9-9.3
		c-7.9-4.5-17.6-4.5-25.5,0c-3.8,2.2-6.9,5.4-9,9.3c-4.5,8.4-4.5,18.5,0,26.9C468.7,228.7,471.8,231.9,475.6,234.2z M473.2,201.6
		c1.5-2.7,3.6-5,6.2-6.7c2.7-1.7,5.7-2.5,8.9-2.5c3.1,0,6.1,0.8,8.8,2.5c2.6,1.6,4.7,3.9,6.2,6.7c3,6.2,3,13.4,0,19.6
		c-1.4,2.7-3.6,5.1-6.2,6.7c-2.6,1.6-5.7,2.5-8.8,2.5c-3.1,0-6.2-0.8-8.9-2.5c-2.6-1.7-4.8-4-6.2-6.7
		C470.2,215,470.2,207.8,473.2,201.6z"/>
	<path class="st3" d="M559,235.4c1.6,1.5,4.1,1.5,5.6,0c0.7-0.8,1.1-1.8,1.1-2.8v-26.2c0-2.4,0.6-4.7,1.9-6.7
		c2.7-4.2,7.4-6.7,12.4-6.7c2.4-0.1,4.8,0.5,6.8,1.8c1.7,1.2,2.9,2.9,3.6,4.9c0.7,2.2,1.1,4.4,1.1,6.7v26.2c0,1,0.4,2.1,1.1,2.8
		c0.7,0.8,1.7,1.2,2.8,1.2c1.1,0,2.1-0.4,2.9-1.2c0.7-0.7,1.1-1.8,1.1-2.8v-26.4c0.1-3.5-0.5-7-1.6-10.3c-1-2.9-2.8-5.5-5.3-7.4
		c-2.5-1.8-5.8-2.8-10-2.8c-2.6,0-5.2,0.6-7.6,1.6c-2.4,1-4.5,2.4-6.5,4.2c-1.6,1.3-2.9,3-3.8,4.9c-0.9-2.9-2.6-5.4-4.9-7.3
		c-2.7-2.2-6.3-3.3-10.7-3.3c-2.3,0-4.5,0.4-6.6,1.2c-3.9,1.6-7.2,4.3-9.6,7.8v-4.3c0-1.1-0.3-2.1-1.1-2.9c-0.7-0.8-1.8-1.2-2.8-1.1
		c-1,0-2,0.4-2.8,1.1c-0.7,0.8-1.1,1.8-1.1,2.9v42.1c0,1,0.4,2.1,1.1,2.8c1.5,1.5,3.9,1.6,5.4,0.1c0,0,0,0,0.1-0.1
		c0.7-0.7,1.1-1.8,1.1-2.8v-26.5c0-2.3,0.7-4.6,1.9-6.6c2.7-4.1,7.3-6.6,12.2-6.6c2.3-0.1,4.6,0.5,6.6,1.8c1.6,1.2,2.8,2.9,3.5,4.8
		c0.7,2.1,1.1,4.3,1.1,6.6v26.5C557.9,233.7,558.3,234.7,559,235.4z"/>
	<path class="st3" d="M623,234.3c4.2,2.3,8.9,3.4,13.6,3.3c3.4,0,6.8-0.7,9.8-2.2c2.8-1.3,5.3-3,7.4-5.2c0.9-0.7,1.5-1.8,1.5-3
		c0-0.9-0.4-1.7-1-2.3c-0.6-0.6-1.4-1-2.3-1c-0.9,0-1.8,0.3-2.5,0.9c-0.9,1-2,1.9-3,2.7c-1.3,0.9-2.8,1.7-4.3,2.2
		c-5.1,1.6-10.7,1-15.4-1.6c-2.7-1.6-4.9-3.9-6.3-6.7c-1.3-2.6-2.1-5.5-2.2-8.4h35.2c1,0,2-0.3,2.7-1c0.8-0.6,1.2-1.6,1.2-2.6
		c0-6.5-2.5-12.8-7.2-17.4c-2.1-2.1-4.6-3.7-7.3-4.8c-2.7-1.1-5.7-1.7-8.6-1.6c-4,0-7.9,1.1-11.4,3.1c-3.7,2.2-6.7,5.3-8.7,9.1
		c-2.3,4.4-3.5,9.4-3.3,14.4c-0.1,4.6,1,9.2,3.2,13.3C616.1,229,619.2,232.2,623,234.3z M623.3,196.9c1.5-1.4,3.2-2.6,5.1-3.3
		c1.8-0.7,3.8-1.1,5.8-1.1c2.4,0,4.7,0.5,6.8,1.6c2.2,1,4,2.5,5.5,4.4c1.5,2,2.4,4.3,2.6,6.8v0.8h-30.4c0.2-1.2,0.5-2.3,0.9-3.4
		C620.5,200.6,621.7,198.6,623.3,196.9z"/>
	<path class="st3" d="M714,232.6V169c0-1.1-0.4-2.1-1.1-2.9c-0.7-0.7-1.7-1.1-2.8-1.1c-1.1,0-2.1,0.4-2.9,1.2
		c-0.7,0.8-1.1,1.8-1.1,2.8v24.9c-0.9-1.3-2-2.5-3.2-3.5c-7.2-6-17.5-6.7-25.5-1.7c-3.5,2.3-6.3,5.5-8.2,9.2c-4.1,8.5-4.1,18.5,0,27
		c1.9,3.8,4.7,7,8.3,9.3c3.5,2.3,7.6,3.4,11.8,3.4c2.5,0,5-0.5,7.3-1.4c2.2-0.9,4.2-2.1,5.9-3.7c1.4-1.2,2.6-2.6,3.5-4.1v4.3
		c0,1,0.4,2.1,1.1,2.8c0.7,0.8,1.8,1.2,2.9,1.2c1,0,2-0.4,2.8-1.2C713.6,234.7,714,233.7,714,232.6z M698.7,227.9
		c-2.5,1.7-5.5,2.5-8.5,2.5c-3,0-6-0.8-8.5-2.5c-2.5-1.7-4.5-4.1-5.8-6.8c-1.4-3-2.2-6.3-2.1-9.6c-0.1-3.4,0.7-6.7,2.1-9.7
		c1.3-2.7,3.3-5.1,5.8-6.8c5.2-3.3,11.8-3.3,17,0c2.5,1.7,4.5,4,5.8,6.8c2.8,6.2,2.8,13.3,0,19.4
		C703.2,223.9,701.2,226.2,698.7,227.9L698.7,227.9z"/>
	<path class="st3" d="M731.9,185.8c-1.1,0-2.1,0.4-2.9,1.2c-0.7,0.7-1.1,1.8-1.1,2.8v42.8c0,1,0.4,2.1,1.1,2.8
		c0.7,0.8,1.8,1.2,2.8,1.2c1,0,2-0.4,2.8-1.2c0.7-0.7,1.1-1.8,1.1-2.8v-42.8c0-1-0.4-2-1.1-2.8C733.9,186.2,732.9,185.8,731.9,185.8
		z"/>
	<path class="st3" d="M731.8,179.4c1.3,0.1,2.5-0.3,3.5-1c0.9-0.8,1.3-1.9,1.2-3V174c0.1-1.1-0.3-2.2-1.2-3c-1-0.7-2.2-1.1-3.5-1
		c-1.3-0.1-2.5,0.3-3.6,1c-0.9,0.7-1.3,1.9-1.2,3v1.4c-0.1,1.1,0.3,2.2,1.2,3C729.2,179.1,730.5,179.4,731.8,179.4z"/>
	<path class="st3" d="M758.5,234.1c3.9,2.3,8.3,3.5,12.9,3.4c3.1,0,6.3-0.4,9.3-1.3c2.4-0.7,4.6-1.8,6.6-3.2
		c1.6-1.3,2.4-2.5,2.4-3.8c0-1-0.3-1.9-0.9-2.6c-0.6-0.7-1.6-1.1-2.6-1.1c-1,0-1.9,0.3-2.6,1c-0.8,0.8-1.6,1.4-2.6,1.9
		c-1.1,0.6-2.2,1-3.4,1.4c-1.8,0.4-3.6,0.6-5.4,0.6c-3.2,0.1-6.4-0.8-9.2-2.5c-2.6-1.7-4.8-4-6.2-6.8c-1.5-3-2.3-6.3-2.2-9.7
		c-0.1-3.4,0.7-6.7,2.3-9.7c1.5-2.8,3.7-5.1,6.3-6.8c2.8-1.7,6-2.6,9.3-2.5c1.5,0,3,0.1,4.4,0.4c1.2,0.2,2.3,0.5,3.4,1
		c0.7,0.4,1.4,0.8,2,1.4c0.5,0.5,1,0.9,1.5,1.3c0.6,0.4,1.3,0.6,2.1,0.5c0.9,0,1.9-0.4,2.4-1.2c0.6-0.7,0.9-1.6,0.9-2.5
		c-0.1-1.7-0.9-3.2-2.3-4.1c-1.9-1.4-4-2.4-6.3-2.9c-2.9-0.7-6-1.1-9-1.1c-9.1-0.2-17.5,4.8-21.7,12.9c-2.1,4.1-3.2,8.6-3.1,13.2
		c-0.1,4.6,0.9,9.2,3,13.3C751.9,228.6,754.9,231.8,758.5,234.1z"/>
	<path class="st3" d="M808.4,234.1c3.5,2.3,7.6,3.5,11.8,3.4c2.5,0,5-0.5,7.3-1.4c2.1-0.9,4.1-2.1,5.9-3.6c1.4-1.2,2.6-2.5,3.6-4
		v4.1c0,1,0.4,2.1,1.1,2.8c0.7,0.8,1.8,1.2,2.8,1.2c1,0,2-0.4,2.8-1.2c0.7-0.7,1.1-1.8,1.1-2.8V190c0-2.1-1.7-3.8-3.8-3.9
		c0,0-0.1,0-0.1,0c-1.1,0-2.1,0.4-2.8,1.1c-0.8,0.7-1.2,1.7-1.2,2.8v3.8c-0.9-1.2-1.9-2.4-3-3.4c-1.8-1.6-4-2.8-6.2-3.7
		c-2.5-0.9-5.1-1.4-7.7-1.4c-4.1-0.1-8.2,1.1-11.7,3.3c-3.5,2.3-6.3,5.4-8.2,9.2c-2.1,4.2-3.1,8.8-3,13.5c-0.1,4.7,0.9,9.3,3,13.4
		C802,228.6,804.9,231.8,808.4,234.1z M806.8,201.7c1.3-2.7,3.3-5,5.8-6.7c2.5-1.6,5.5-2.5,8.5-2.5c3-0.1,6,0.8,8.5,2.5
		c2.5,1.7,4.5,4.1,5.8,6.8c1.5,3,2.2,6.3,2.1,9.6c0.1,3.4-0.7,6.7-2.1,9.7c-1.3,2.7-3.3,5.1-5.8,6.8c-2.5,1.7-5.5,2.6-8.5,2.5
		c-3,0.1-6-0.8-8.5-2.5c-2.5-1.7-4.5-4.1-5.8-6.8c-1.4-3-2.1-6.4-2.1-9.7C804.6,208,805.3,204.7,806.8,201.7z"/>
	<path class="st3" d="M863.7,236.6c2.2,0,4-1.8,4-4V169c0-1-0.4-2-1.1-2.8c-0.7-0.8-1.7-1.2-2.8-1.2c-2.2,0-4,1.8-4,4v63.6
		c0,1,0.4,2.1,1.1,2.8C861.7,236.2,862.7,236.6,863.7,236.6z"/>
	<path class="st3" d="M426.5,271.5c-1.1,0-2.1,0.4-2.9,1.1c-0.7,0.7-1.1,1.7-1.1,2.8v3.8c-0.9-1.3-1.9-2.4-3-3.4
		c-1.8-1.6-4-2.8-6.2-3.7c-2.5-0.9-5.1-1.4-7.7-1.4c-4.1-0.1-8.2,1.1-11.6,3.3c-3.5,2.3-6.3,5.4-8.2,9.2c-2.1,4.2-3.1,8.8-3,13.5
		c-0.1,4.7,0.9,9.3,3,13.4c1.9,3.8,4.7,7,8.3,9.3c3.5,2.3,7.6,3.5,11.9,3.4c2.5,0,5-0.5,7.3-1.4c2.1-0.9,4.1-2,5.8-3.5
		c1.4-1.2,2.6-2.5,3.6-4v4c0,1,0.4,2.1,1.1,2.8c0.7,0.8,1.8,1.2,2.9,1.2c1,0,2-0.4,2.8-1.2c0.7-0.7,1.1-1.8,1.1-2.8v-42.6
		c0-2.1-1.6-3.8-3.7-3.9C426.6,271.5,426.6,271.5,426.5,271.5L426.5,271.5z M415.1,313.3c-2.5,1.7-5.5,2.6-8.5,2.5
		c-3,0.1-6-0.8-8.6-2.5c-2.5-1.7-4.5-4.1-5.8-6.8c-1.4-3-2.1-6.4-2.1-9.7c-0.1-3.3,0.7-6.7,2.1-9.7c1.3-2.7,3.3-5,5.9-6.7
		c2.5-1.6,5.5-2.5,8.5-2.5c3-0.1,6,0.8,8.5,2.5c2.5,1.7,4.5,4.1,5.8,6.8c1.4,3,2.2,6.3,2.1,9.6c0.1,3.4-0.7,6.7-2.1,9.7
		C419.6,309.2,417.6,311.5,415.1,313.3L415.1,313.3z"/>
	<path class="st3" d="M478,284.5c0.8,2.1,1.1,4.4,1.1,6.7V318c0,1,0.4,2,1.1,2.8c0.7,0.8,1.7,1.2,2.8,1.2c1,0,2-0.4,2.8-1.2
		c0.7-0.7,1.1-1.8,1.1-2.8v-27.1c0.1-3.5-0.5-6.9-1.6-10.2c-1-2.9-2.9-5.5-5.4-7.2c-2.5-1.8-6-2.7-10.4-2.7c-2.3,0-4.5,0.4-6.7,1.2
		c-2.1,0.8-4,1.9-5.8,3.2c-1.7,1.3-3.2,2.8-4.4,4.6l-0.3,0.5v-4.3c0-1.1-0.3-2.1-1.1-2.9c-0.7-0.8-1.8-1.2-2.8-1.1
		c-1,0-2,0.4-2.8,1.1c-0.7,0.8-1.1,1.8-1.1,2.9V318c0,1,0.4,2.1,1.1,2.8c1.5,1.5,3.9,1.6,5.4,0.1c0,0,0,0,0.1-0.1
		c0.7-0.7,1.1-1.8,1.1-2.8v-26.9c0-2.4,0.7-4.7,2-6.7c1.4-2,3.2-3.7,5.4-4.8c2.3-1.2,4.9-1.8,7.4-1.8c2.5-0.1,4.9,0.5,7,1.8
		C476,280.8,477.3,282.5,478,284.5z"/>
	<path class="st3" d="M521.6,322.9c2.5,0,5-0.5,7.3-1.4c2.2-0.9,4.2-2.1,6-3.7c1.4-1.2,2.6-2.6,3.5-4.1v4.3c0,1,0.4,2.1,1.1,2.8
		c0.7,0.8,1.8,1.2,2.8,1.2c1,0,2-0.4,2.8-1.2c0.7-0.7,1.1-1.8,1.1-2.8v-63.6c0-1.1-0.4-2.1-1.1-2.9c-1.6-1.5-4.1-1.5-5.6,0.1
		c-0.7,0.7-1.1,1.8-1.1,2.8v24.9c-0.9-1.3-2-2.5-3.2-3.5c-3.9-3.3-8.8-5-13.8-5c-4.1-0.1-8.2,1.1-11.6,3.3c-3.5,2.3-6.3,5.5-8.2,9.2
		c-4.1,8.5-4.1,18.5,0,27c1.9,3.8,4.7,7,8.3,9.3C513.3,321.8,517.4,323,521.6,322.9z M506,296.8c-0.1-3.4,0.7-6.7,2.1-9.7
		c1.3-2.7,3.3-5.1,5.8-6.8c5.2-3.3,11.8-3.3,17,0c2.5,1.7,4.5,4,5.8,6.8c2.8,6.2,2.8,13.3,0,19.4c-1.3,2.7-3.3,5.1-5.8,6.8
		c-2.5,1.7-5.5,2.5-8.5,2.5c-3,0-6-0.8-8.5-2.5c-2.5-1.7-4.5-4.1-5.9-6.8C506.7,303.4,506,300.2,506,296.8z"/>
	<path class="st3" d="M641.8,305.2c2.2-5.4,3.3-11.2,3.2-17.1c0-4.4-0.6-8.7-1.8-12.9c-1.1-3.9-2.9-7.6-5.4-10.9
		c-2.4-3.1-5.4-5.7-8.9-7.4c-3.9-1.8-8.2-2.7-12.5-2.6h-24.1c-2.2,0-4,1.8-4,4V318c0,2.2,1.8,4,4,4h24.1c6.4,0,11.7-1.5,15.9-4.5
		C636.6,314.4,639.9,310.1,641.8,305.2z M627.6,310.8c-3.1,2.4-7.2,3.6-12.2,3.6h-19v-52.6h19c3.3-0.1,6.6,0.6,9.6,2.1
		c2.6,1.4,4.9,3.4,6.6,5.8c1.8,2.6,3,5.4,3.8,8.4c0.8,3.3,1.2,6.6,1.2,10c0.1,4.5-0.7,8.9-2.2,13.1
		C633.2,305.1,630.8,308.4,627.6,310.8L627.6,310.8z"/>
	<path class="st3" d="M684.2,321.5c2.1-0.9,4.1-2.1,5.9-3.6c1.4-1.2,2.6-2.5,3.6-4v4.1c0,1,0.4,2.1,1.1,2.8c0.7,0.8,1.8,1.2,2.8,1.2
		c1,0,2-0.4,2.8-1.2c0.7-0.7,1.1-1.8,1.1-2.8v-42.6c0-2.1-1.6-3.8-3.7-3.9c0,0-0.1,0-0.1,0c-1.1,0-2.1,0.4-2.8,1.1
		c-0.7,0.7-1.1,1.7-1.1,2.8v3.8c-0.9-1.2-1.9-2.4-3-3.4c-1.8-1.6-4-2.8-6.2-3.7c-2.5-0.9-5.1-1.4-7.7-1.4c-4.1-0.1-8.2,1.1-11.7,3.3
		c-3.5,2.3-6.3,5.4-8.2,9.2c-2.1,4.2-3.1,8.8-3,13.5c-0.1,4.7,0.9,9.3,3,13.4c1.9,3.8,4.7,7,8.3,9.3c3.5,2.3,7.6,3.5,11.8,3.4
		C679.4,322.9,681.9,322.5,684.2,321.5z M663.4,306.4c-1.4-3-2.1-6.4-2.1-9.7c-0.1-3.3,0.7-6.7,2.1-9.7c1.3-2.7,3.3-5,5.8-6.7
		c2.5-1.6,5.5-2.5,8.5-2.5c3-0.1,6,0.8,8.5,2.5c2.5,1.7,4.5,4.1,5.8,6.8c1.5,3,2.2,6.3,2.1,9.6c0.1,3.4-0.7,6.7-2.1,9.7
		c-1.3,2.7-3.3,5.1-5.8,6.8c-2.5,1.7-5.5,2.6-8.5,2.5c-3,0.1-6-0.8-8.5-2.5C666.7,311.5,664.6,309.2,663.4,306.4z"/>
	<path class="st3" d="M728.5,321.8c1.3,0.1,2.4,0.2,3.3,0.2c1.6,0,3.2-0.4,4.5-1.2c1.7-0.7,2.5-2.7,1.8-4.4
		c-0.1-0.3-0.3-0.6-0.6-0.9c-0.4-0.5-1.1-0.9-1.8-0.9c-0.6,0-1.2,0.1-1.7,0.3c-0.5,0.2-1.1,0.4-1.7,0.3c-0.7,0-1.5-0.2-2.2-0.4
		c-0.8-0.3-1.4-0.9-1.8-1.6c-0.5-1.1-0.8-2.3-0.7-3.5v-30.3h8.8c1,0,1.9-0.3,2.6-1c0.7-0.6,1-1.5,1-2.5c0-1-0.3-1.9-1-2.6
		c-0.7-0.7-1.6-1.1-2.6-1.1h-8.8v-9.2c0-1-0.4-2-1.1-2.8c-0.7-0.8-1.7-1.2-2.7-1.2c-2.2,0-4,1.8-4,4v9.2h-6.2c-1,0-1.9,0.4-2.6,1
		c-0.7,0.6-1.1,1.6-1.1,2.6c0,1,0.4,1.9,1.1,2.5c0.7,0.7,1.6,1.1,2.6,1.1h6.2v30.6c-0.1,2.4,0.3,4.7,1.3,6.9
		c0.7,1.5,1.8,2.7,3.2,3.5C725.8,321.2,727.1,321.6,728.5,321.8z"/>
	<path class="st3" d="M796,275.4c0-1-0.4-2-1.1-2.8c-0.7-0.7-1.7-1.1-2.8-1.1c-1.1,0-2.1,0.4-2.8,1.1c-0.7,0.7-1.1,1.7-1.1,2.8v3.8
		c-0.9-1.2-1.9-2.4-3-3.4c-1.8-1.6-4-2.8-6.2-3.7c-2.5-0.9-5.1-1.4-7.7-1.4c-4.1-0.1-8.2,1.1-11.7,3.3c-3.5,2.3-6.3,5.4-8.2,9.2
		c-2.1,4.2-3.1,8.8-3,13.5c-0.1,4.7,1,9.3,3,13.4c1.9,3.8,4.7,7,8.3,9.3c3.5,2.3,7.6,3.5,11.8,3.4c2.5,0,5-0.5,7.3-1.4
		c2.1-0.9,4.1-2.1,5.9-3.6c1.4-1.2,2.6-2.5,3.6-4v4.1c0,1,0.4,2.1,1.1,2.8c0.7,0.8,1.8,1.2,2.8,1.2c1,0,2-0.4,2.8-1.2
		c0.7-0.8,1.1-1.8,1-2.8V275.4z M780.7,313.3c-2.5,1.7-5.5,2.6-8.5,2.5c-3,0.1-6-0.8-8.5-2.5c-2.5-1.7-4.5-4.1-5.8-6.8
		c-1.4-3-2.1-6.4-2.1-9.7c-0.1-3.3,0.7-6.7,2.1-9.7c1.3-2.7,3.3-5,5.8-6.7c2.5-1.6,5.5-2.5,8.5-2.5c3-0.1,6,0.8,8.5,2.5
		c2.5,1.7,4.5,4.1,5.8,6.8c1.5,3,2.2,6.3,2.1,9.6c0.1,3.4-0.7,6.7-2.1,9.7C785.2,309.2,783.2,311.5,780.7,313.3L780.7,313.3z"/>
	<path class="st3" d="M875.5,314.3h-29.3v-56.1c0-2.2-1.8-4-4-4c-1.1-0.1-2.2,0.4-3,1.2c-0.8,0.7-1.2,1.7-1.2,2.8V318
		c0,1,0.4,2.1,1.1,2.8c0.7,0.8,1.8,1.2,2.8,1.2h33.5c1,0,2-0.4,2.8-1.1c0.8-0.7,1.2-1.7,1.2-2.7c0-1-0.4-2-1.2-2.8
		C877.5,314.7,876.6,314.3,875.5,314.3z"/>
	<path class="st3" d="M930.4,271.5c-1.1,0-2.1,0.4-2.8,1.1c-0.7,0.7-1.1,1.7-1.1,2.8v3.8c-0.9-1.2-1.9-2.4-3-3.4
		c-1.8-1.6-4-2.8-6.2-3.7c-2.5-0.9-5.1-1.4-7.7-1.4c-4.1-0.1-8.2,1.1-11.7,3.3c-3.5,2.3-6.3,5.4-8.2,9.2c-2.1,4.2-3.1,8.8-3,13.5
		c-0.1,4.7,0.9,9.3,3,13.4c1.9,3.8,4.7,7,8.3,9.3c3.5,2.3,7.6,3.5,11.8,3.4c2.5,0,5-0.5,7.3-1.4c2.1-0.9,4.1-2.1,5.9-3.6
		c1.4-1.2,2.6-2.5,3.6-4v4.1c0,1,0.4,2.1,1.1,2.8c0.7,0.8,1.8,1.2,2.8,1.2c1,0,2-0.4,2.8-1.2c0.7-0.7,1.1-1.8,1.1-2.8v-42.6
		c0-2.1-1.6-3.8-3.7-3.9C930.6,271.5,930.5,271.5,930.4,271.5L930.4,271.5z M919,313.3c-2.5,1.7-5.5,2.6-8.5,2.5
		c-3,0.1-6-0.8-8.6-2.5c-2.5-1.7-4.5-4.1-5.8-6.8c-1.4-3-2.1-6.4-2.1-9.7c-0.1-3.3,0.7-6.7,2.1-9.7c1.3-2.7,3.3-5,5.8-6.7
		c2.5-1.6,5.5-2.5,8.5-2.5c3-0.1,6,0.8,8.5,2.5c2.5,1.7,4.5,4.1,5.8,6.8c1.4,3,2.2,6.3,2.1,9.6c0.1,3.4-0.7,6.7-2.1,9.7
		C923.5,309.2,921.5,311.5,919,313.3z"/>
	<path class="st3" d="M993.3,283.2c-1.9-3.7-4.7-6.9-8.3-9.1c-3.5-2.2-7.6-3.4-11.8-3.3c-2.2,0-4.3,0.4-6.3,1.1
		c-2,0.7-3.8,1.6-5.5,2.9c-1.6,1.1-3,2.5-4.2,4.1c-0.3,0.4-0.6,0.9-0.9,1.4v-25.7c0-1-0.4-2-1.1-2.8c-0.7-0.8-1.7-1.2-2.8-1.2
		c-1,0-2,0.4-2.8,1.2c-0.7,0.7-1.1,1.8-1.1,2.8v64.1c0,1.1,0.4,2.1,1.1,2.9c0.7,0.7,1.7,1.1,2.8,1.1c1.1,0,2.1-0.4,2.8-1.2
		c0.7-0.8,1.1-1.8,1.1-2.8v-4.3c0.1,0.2,0.2,0.4,0.4,0.5c1.2,1.6,2.7,2.9,4.3,4.1c1.7,1.3,3.7,2.3,5.7,3c2.2,0.8,4.4,1.1,6.7,1.1
		c4.1,0,8.2-1.1,11.7-3.4c3.5-2.3,6.3-5.6,8.2-9.3c2.1-4.2,3.1-8.9,3-13.5C996.4,292,995.4,287.4,993.3,283.2z M986.7,306.4
		c-1.3,2.8-3.3,5.1-5.8,6.9c-2.5,1.7-5.5,2.6-8.5,2.5c-3,0.1-6-0.8-8.5-2.5c-2.5-1.7-4.5-4.1-5.8-6.9c-1.4-3.1-2.1-6.4-2.1-9.8
		c-0.1-3.3,0.6-6.6,2-9.6c1.3-2.7,3.3-5,5.8-6.7c2.5-1.7,5.5-2.5,8.5-2.5c3-0.1,6,0.8,8.5,2.5c2.5,1.7,4.5,4,5.8,6.7
		c1.5,3,2.2,6.3,2.1,9.6C988.9,300,988.1,303.3,986.7,306.4z"/>
	<path class="st0" d="M138.7,390.4h56.8c11.4,0,20.6-9.2,20.6-20.6V185.7c0-11.4-9.2-20.6-20.6-20.6h-56.8
		c-11.4,0-20.6,9.2-20.6,20.6v184.1C118.1,381.2,127.3,390.4,138.7,390.4z M148.6,180.4h36.9c3.6,0,6.5,2.9,6.5,6.4c0,0,0,0,0,0
		v38.2c0,2.8-1.7,5.2-4.3,6.1L150.9,244l-0.2,0.1c-3.4,1.2-7.1-0.6-8.2-4c-0.2-0.7-0.4-1.4-0.4-2.1v-51.1
		C142.2,183.3,145.1,180.4,148.6,180.4L148.6,180.4z M142.2,282.3c0-2.7,1.7-5.2,4.3-6.1l36.8-13l0.3-0.1c3.4-1.1,7.1,0.7,8.2,4.1
		c0.2,0.7,0.3,1.3,0.3,2v96.8c0,3.6-2.9,6.5-6.4,6.5c0,0,0,0,0,0h-36.9c-3.6,0-6.5-2.9-6.5-6.5l0,0L142.2,282.3z"/>
	<path class="st0" d="M241.2,185.6v184.1c0,11.4,9.2,20.6,20.6,20.6c0,0,0,0,0,0l0,0c2.4,0,4.9-0.4,7.2-1.3l59.2-22
		c8.1-3,13.4-10.7,13.4-19.3v-162c0-11.4-9.1-20.6-20.5-20.7c0,0-0.1,0-0.1,0h-59.2C250.5,165,241.2,174.3,241.2,185.6
		C241.2,185.6,241.2,185.6,241.2,185.6z M316.2,345.3c0,2.7-1.7,5.2-4.3,6.1l-36.8,13l0,0c-3.3,1.3-7.1-0.4-8.3-3.7
		c-0.3-0.7-0.4-1.5-0.4-2.3V186.8c0-3.6,2.9-6.5,6.5-6.5h36.9c3.6,0,6.5,2.9,6.5,6.5V345.3z"/>
	<path class="st4" d="M421.8,871.1c-0.5-0.1-1,0.2-1.2,0.6l-17.8,26.5L385,871.7c-0.1-0.2-0.3-0.4-0.6-0.5c-0.2-0.1-0.4-0.1-0.6-0.1
		c-0.4,0-0.7,0.1-0.9,0.4c-0.2,0.2-0.3,0.5-0.3,0.9v42.4c0,0.3,0.1,0.7,0.4,0.9c0.2,0.3,0.6,0.4,0.9,0.4c0.3,0,0.7-0.1,0.9-0.4
		c0.3-0.2,0.4-0.6,0.4-0.9v-38.5l16.6,25.1c0.1,0.2,0.2,0.3,0.4,0.4c0.2,0.1,0.4,0.1,0.6,0.1c0.2,0,0.4,0,0.5-0.1
		c0.2-0.1,0.3-0.2,0.4-0.4l16.6-25.1v38.5c0,0.3,0.1,0.7,0.4,0.9c0.3,0.3,0.6,0.4,1,0.4c0.3,0,0.7-0.1,0.9-0.4
		c0.3-0.2,0.4-0.6,0.4-0.9v-42.4c0-0.3-0.1-0.6-0.3-0.9C422.5,871.3,422.2,871.1,421.8,871.1z"/>
	<path class="st4" d="M461.3,884c-0.4,0-0.7,0.1-0.9,0.4c-0.2,0.2-0.4,0.6-0.4,0.9v5.7c-1.3-3.2-3.9-5.7-7.1-7c-1.7-0.7-3.4-1-5.2-1
		c-2.7,0-5.3,0.7-7.6,2.2c-2.3,1.5-4.1,3.5-5.3,5.9c-1.4,2.7-2.1,5.6-2,8.6c0,3,0.6,6,1.9,8.7c1.2,2.5,3,4.6,5.3,6.1
		c2.3,1.5,5,2.3,7.7,2.2c1.8,0,3.6-0.3,5.3-1.1c1.6-0.7,3-1.6,4.2-2.8c1.2-1.1,2.2-2.4,2.9-3.9v5.8c0,0.3,0.1,0.7,0.4,0.9
		c0.2,0.3,0.6,0.4,0.9,0.4c0.7,0,1.3-0.6,1.3-1.3v-29.5c0-0.3-0.1-0.7-0.4-0.9C462,884.1,461.6,884,461.3,884z M458.6,907.2
		c-1,2.1-2.5,3.9-4.4,5.2c-3.9,2.5-8.9,2.5-12.9,0c-1.9-1.3-3.4-3.1-4.4-5.2c-1.1-2.3-1.7-4.9-1.6-7.5c-0.1-2.6,0.5-5.1,1.6-7.4
		c1-2.1,2.6-3.8,4.5-5c1.9-1.2,4.1-1.9,6.4-1.8c2.3,0,4.5,0.6,6.4,1.9c1.9,1.3,3.4,3.1,4.4,5.1c1.1,2.3,1.6,4.7,1.6,7.2
		C460.3,902.3,459.7,904.8,458.6,907.2L458.6,907.2z"/>
	<path class="st4" d="M493.6,885.3c-1.9-1.2-4.1-1.8-6.4-1.7c-1.6,0-3.2,0.3-4.6,0.9c-1.5,0.6-3,1.5-4.2,2.6c-1,0.9-1.9,1.9-2.6,3
		v-20.3c0-0.3-0.1-0.7-0.4-0.9c-0.5-0.5-1.3-0.5-1.9,0c-0.2,0.2-0.4,0.5-0.4,0.9v45c0,0.3,0.1,0.7,0.4,0.9c0.2,0.3,0.6,0.4,0.9,0.4
		c0.7,0,1.3-0.6,1.3-1.3V896c0-1.8,0.6-3.6,1.7-5c1.2-1.5,2.6-2.7,4.3-3.6c1.7-0.9,3.5-1.3,5.4-1.3c1.8-0.1,3.6,0.4,5.1,1.3
		c1.3,0.9,2.3,2.1,2.8,3.6c0.6,1.6,0.9,3.3,0.9,5v18.8c0,0.3,0.1,0.7,0.4,0.9c0.2,0.3,0.6,0.4,0.9,0.4c0.7,0,1.3-0.6,1.3-1.3V896
		c0-2.1-0.4-4.3-1.2-6.2C496.6,888,495.3,886.4,493.6,885.3z"/>
	<path class="st1" d="M510.7,874c-0.6,0-1.2,0.2-1.7,0.6c-0.4,0.4-0.7,0.9-0.6,1.5v0.5c0,0.6,0.2,1.1,0.6,1.5c0.4,0.4,1,0.6,1.6,0.6
		c0.6,0,1.1-0.2,1.6-0.6c0.4-0.4,0.6-0.9,0.6-1.5v-0.5c0-0.6-0.2-1.1-0.6-1.5C511.8,874.2,511.3,874,510.7,874z"/>
	<path class="st4" d="M510.6,883c-0.7,0-1.3,0.6-1.3,1.3v30.5c0,0.3,0.1,0.7,0.4,0.9c0.2,0.3,0.6,0.4,0.9,0.4c0.7,0,1.3-0.6,1.3-1.3
		v-30.5c0-0.3-0.1-0.7-0.4-0.9C511.3,883.1,511,883,510.6,883z"/>
	<path class="st4" d="M549.1,868.5c-0.3,0-0.7,0.1-0.9,0.4c-0.2,0.2-0.4,0.6-0.3,0.9v21.3c0,0,0-0.1-0.1-0.2c-1.4-3.2-4-5.7-7.2-7
		c-1.6-0.7-3.3-1-5-1c-2.7,0-5.3,0.7-7.6,2.2c-2.3,1.5-4.1,3.6-5.3,6c-2.6,5.5-2.6,11.8,0,17.3c1.2,2.4,3.1,4.5,5.3,6
		c2.3,1.5,4.9,2.3,7.6,2.2c1.8,0,3.6-0.4,5.3-1.1c1.6-0.7,3-1.7,4.3-2.9c1.2-1.2,2.1-2.5,2.8-4v6.1c0,0.3,0.1,0.7,0.3,0.9
		c0.5,0.5,1.3,0.5,1.9,0c0.2-0.2,0.4-0.5,0.4-0.9v-45c0-0.3-0.1-0.7-0.3-0.9C549.8,868.6,549.5,868.5,549.1,868.5z M542.1,912.4
		c-1.9,1.3-4.2,1.9-6.5,1.9c-2.3,0-4.5-0.6-6.4-1.9c-1.9-1.3-3.5-3.1-4.5-5.2c-2.2-4.7-2.2-10.1,0-14.8c1-2.1,2.5-3.8,4.5-5.1
		c3.9-2.5,8.9-2.5,12.8,0c1.9,1.3,3.4,3,4.4,5.1c2.1,4.7,2.1,10.2,0,14.9C545.5,909.4,544,911.2,542.1,912.4L542.1,912.4z"/>
	<path class="st4" d="M583.1,885.2c-5-3-11.2-3-16.2,0c-2.4,1.5-4.4,3.5-5.7,6c-2.8,5.4-2.8,11.8,0,17.2c1.3,2.5,3.3,4.5,5.7,6
		c5,3,11.2,3,16.2,0c2.4-1.5,4.3-3.5,5.6-6c2.7-5.4,2.7-11.8,0-17.2C587.4,888.8,585.5,886.7,583.1,885.2z M586.5,907.2
		c-1.1,2.1-2.7,3.9-4.7,5.1c-4.2,2.5-9.5,2.5-13.7,0c-2-1.3-3.7-3-4.8-5.1c-2.3-4.7-2.3-10.1,0-14.8c1.1-2.1,2.7-3.9,4.8-5.1
		c4.2-2.5,9.5-2.5,13.7,0c2,1.3,3.6,3,4.7,5.1C588.8,897.1,588.8,902.6,586.5,907.2z"/>
	<path class="st4" d="M601.1,868.5c-0.7,0-1.3,0.6-1.3,1.3v45c0,0.3,0.1,0.7,0.3,0.9c0.2,0.3,0.6,0.4,0.9,0.4c0.7,0,1.3-0.6,1.3-1.3
		v-45c0-0.3-0.1-0.7-0.3-0.9C601.8,868.7,601.4,868.5,601.1,868.5z"/>
	<path class="st4" d="M663.6,871.1c-0.4,0-0.7,0.1-0.9,0.4c-0.2,0.2-0.4,0.6-0.4,0.9v27.8c0,2.5-0.6,4.9-1.9,7
		c-1.2,2.1-2.9,3.8-5,5.1c-4.3,2.5-9.7,2.5-14,0c-2.1-1.2-3.8-3-5-5.1c-1.2-2.1-1.9-4.5-1.9-7v-27.8c0-0.3-0.1-0.7-0.4-0.9
		c-0.3-0.3-0.6-0.4-1-0.4c-0.4,0-0.7,0.1-1,0.4c-0.2,0.2-0.4,0.6-0.3,0.9v27.8c0,2.9,0.7,5.8,2.2,8.3c1.5,2.5,3.5,4.5,6,6
		c2.5,1.5,5.4,2.3,8.3,2.2c2.9,0,5.8-0.7,8.3-2.2c2.5-1.5,4.5-3.5,6-6c1.5-2.5,2.3-5.4,2.2-8.3v-27.8c0-0.3-0.1-0.7-0.4-0.9
		C664.3,871.2,664,871.1,663.6,871.1z"/>
	<path class="st4" d="M697.8,884.6c-2-1.2-4.3-1.7-6.6-1.6c-1.6,0-3.3,0.3-4.8,0.9c-1.6,0.6-3.1,1.5-4.5,2.6c-1.1,0.9-2,2-2.8,3.2
		v-4.3c0-0.3-0.1-0.7-0.4-0.9c-0.2-0.3-0.6-0.4-0.9-0.4c-0.7,0-1.3,0.6-1.3,1.3v29.5c0,0.3,0.1,0.7,0.3,0.9c0.2,0.3,0.6,0.4,0.9,0.4
		c0.3,0,0.7-0.1,0.9-0.4c0.3-0.2,0.4-0.6,0.4-0.9v-19.4c0-1.8,0.6-3.6,1.8-5c1.2-1.5,2.7-2.8,4.5-3.6c1.7-0.9,3.6-1.3,5.5-1.3
		c1.9-0.1,3.7,0.4,5.3,1.3c1.3,0.9,2.4,2.1,3,3.6c0.6,1.6,1,3.3,0.9,5v19.4c0,0.3,0.1,0.7,0.3,0.9c0.2,0.3,0.6,0.4,0.9,0.4
		c0.7,0,1.3-0.6,1.3-1.3v-19.7c0-2.1-0.4-4.2-1.2-6.2C700.8,887.2,699.5,885.6,697.8,884.6z"/>
	<path class="st1" d="M714.8,874c-0.6,0-1.2,0.2-1.7,0.6c-0.4,0.4-0.7,0.9-0.6,1.5v0.5c0,0.6,0.2,1.1,0.6,1.5c0.4,0.4,1,0.6,1.6,0.6
		c0.6,0,1.1-0.2,1.6-0.6c0.4-0.4,0.6-0.9,0.6-1.5v-0.5c0-0.6-0.2-1.1-0.6-1.5C715.9,874.2,715.3,874,714.8,874z"/>
	<path class="st4" d="M714.7,883c-0.7,0-1.3,0.6-1.3,1.3v30.5c0,0.3,0.1,0.7,0.3,0.9c0.2,0.3,0.6,0.4,0.9,0.4c0.7,0,1.3-0.6,1.3-1.3
		v-30.5c0-0.3-0.1-0.7-0.3-0.9C715.4,883.1,715,883,714.7,883z"/>
	<path class="st4" d="M751.7,883.1c-0.2-0.2-0.5-0.2-0.8-0.3c-0.6-0.1-1.1,0.3-1.3,0.8l-11.7,27.9l-11.7-27.9
		c-0.1-0.3-0.2-0.5-0.5-0.6c-0.2-0.1-0.4-0.2-0.7-0.2c-0.4,0-0.7,0.1-1,0.4c-0.2,0.2-0.3,0.6-0.3,0.9c0,0.1,0,0.2,0,0.3
		c0,0.1,0,0.2,0.1,0.3l12.9,30.5c0.1,0.3,0.2,0.5,0.5,0.6c0.2,0.1,0.5,0.2,0.7,0.2c0.6,0,1.1-0.3,1.2-0.8l12.8-30.6
		c0-0.1,0.1-0.2,0.1-0.3c0-0.2,0.1-0.3,0.1-0.5C752.2,883.6,752,883.3,751.7,883.1z"/>
	<path class="st4" d="M785.4,899c0.3,0,0.7-0.2,0.9-0.4c0.2-0.2,0.4-0.6,0.4-0.9c0-2.2-0.5-4.5-1.4-6.5c-0.8-1.7-1.9-3.3-3.3-4.6
		c-1.3-1.2-2.9-2.1-4.6-2.7c-1.7-0.6-3.5-0.9-5.3-0.9c-2.5,0-4.9,0.7-7,2c-2.3,1.4-4.1,3.4-5.4,5.8c-1.5,2.8-2.2,6-2.1,9.2
		c-0.1,3.1,0.7,6.1,2.1,8.8c1.4,2.4,3.4,4.5,5.8,5.8c2.6,1.4,5.5,2.1,8.5,2.1c2.4,0,4.8-0.6,6.9-1.9c2-1.2,3.7-2.7,5.1-4.5
		c0.2-0.2,0.3-0.5,0.3-0.8c0-0.3-0.1-0.6-0.3-0.8c-0.2-0.2-0.5-0.4-0.8-0.3c-0.4,0-0.8,0.2-1.1,0.6c-0.7,1-1.5,1.9-2.5,2.6
		c-1,0.8-2.2,1.5-3.5,2c-1.3,0.5-2.7,0.7-4.1,0.7c-2.7,0.1-5.4-0.6-7.7-2c-2-1.3-3.7-3.1-4.7-5.3c-1.1-2.2-1.6-4.7-1.6-7.2
		c0-0.3,0-0.6,0-0.8L785.4,899z M764.2,889.1c1.1-1.1,2.5-2,3.9-2.6c1.3-0.5,2.6-0.8,4-0.9c1.8,0,3.7,0.4,5.3,1.2
		c1.7,0.8,3.2,2,4.4,3.5c1.3,1.7,2,3.7,2.2,5.7v0.6h-23.6c0.2-1,0.5-2,0.9-3C761.9,891.9,762.9,890.4,764.2,889.1z"/>
	<path class="st4" d="M811.8,883.3c-0.6-0.2-1.3-0.3-1.9-0.3c-1.9,0-3.9,0.4-5.6,1.4c-1.6,0.9-3,2.1-4.1,3.6c-1,1.3-1.7,2.7-2.3,4.2
		v-6.9c0-0.3-0.1-0.7-0.4-0.9c-0.2-0.3-0.6-0.4-0.9-0.4c-0.3,0-0.7,0.1-0.9,0.4c-0.2,0.2-0.4,0.6-0.4,0.9v29.5
		c0,0.3,0.1,0.7,0.4,0.9c0.2,0.3,0.6,0.4,0.9,0.4c0.3,0,0.7-0.1,0.9-0.4c0.3-0.2,0.4-0.6,0.4-0.9v-16.1c0-1.6,0.4-3.2,1-4.6
		c0.6-1.6,1.5-3.1,2.6-4.4c1-1.3,2.2-2.4,3.6-3.2c1.2-0.8,2.6-1.2,4-1.2c0.5,0,1.1,0.1,1.6,0.3c0.3,0.2,0.6,0.3,0.9,0.3
		c0.3,0,0.6-0.1,0.8-0.4c0.2-0.3,0.4-0.6,0.3-1C812.8,883.8,812.4,883.3,811.8,883.3z"/>
	<path class="st4" d="M837.5,901.6c-1-0.7-2.1-1.3-3.2-1.7c-1.3-0.5-2.6-0.9-4-1.2c-1.6-0.4-3.2-0.9-4.7-1.5
		c-1.2-0.5-2.4-1.2-3.3-2.1c-0.8-0.9-1.3-2.1-1.4-3.3c0-1.3,0.4-2.5,1.2-3.5c0.8-0.9,1.8-1.7,3-2.1c1.3-0.5,2.6-0.7,4-0.7
		c1.6,0,3.2,0.3,4.7,0.9c1.5,0.6,2.8,1.6,3.9,2.8c0.2,0.2,0.5,0.4,0.8,0.4c0.7,0,1.3-0.5,1.3-1.2c0,0,0-0.1,0-0.1
		c0-0.4-0.2-0.7-0.5-0.9c-0.9-1-2-1.9-3.2-2.6c-1.1-0.6-2.3-1-3.5-1.3c-1.1-0.2-2.2-0.4-3.3-0.4c-1.9,0-3.9,0.3-5.7,1.1
		c-1.5,0.7-2.8,1.7-3.8,3.1c-0.9,1.3-1.4,2.9-1.3,4.5c0,1.3,0.3,2.5,0.9,3.7c0.6,1.1,1.4,2,2.4,2.7c1.1,0.8,2.3,1.4,3.6,1.9
		c1.4,0.5,2.8,1,4.3,1.3c1.4,0.3,2.7,0.8,4,1.3c1.2,0.5,2.3,1.2,3.2,2.1c0.8,1,1.3,2.2,1.2,3.5c0,1.3-0.4,2.5-1.2,3.5
		c-0.9,1-2,1.7-3.2,2.1c-1.3,0.5-2.7,0.7-4.1,0.7c-2.1,0.1-4.3-0.5-6.1-1.5c-1.7-0.9-3.2-2.3-4.3-3.9c-0.2-0.3-0.6-0.5-0.9-0.5
		c-0.3,0-0.6,0.1-0.9,0.3c-0.3,0.2-0.5,0.5-0.5,0.8c0,0.5,0.2,0.9,0.4,1.3c1.5,1.9,3.4,3.4,5.6,4.4c2,0.9,4.2,1.4,6.4,1.3
		c2,0,4-0.3,5.8-1.1c1.6-0.6,3-1.7,4-3c1-1.4,1.5-3,1.4-4.7c0-1.3-0.2-2.7-0.8-3.9C839.2,903.1,838.4,902.3,837.5,901.6z"/>
	<path class="st1" d="M850.2,874c-0.6,0-1.2,0.2-1.7,0.6c-0.4,0.4-0.7,0.9-0.6,1.5v0.5c0,0.6,0.2,1.1,0.6,1.5c0.4,0.4,1,0.6,1.6,0.6
		c0.6,0,1.1-0.2,1.6-0.6c0.4-0.4,0.6-0.9,0.6-1.5v-0.5c0-0.6-0.2-1.1-0.6-1.5C851.3,874.2,850.8,874,850.2,874z"/>
	<path class="st4" d="M850.2,883c-0.7,0-1.3,0.6-1.3,1.3v30.5c0,0.3,0.1,0.7,0.3,0.9c0.2,0.3,0.6,0.4,0.9,0.4c0.7,0,1.3-0.6,1.3-1.3
		v-30.5c0-0.3-0.1-0.7-0.3-0.9C850.9,883.1,850.5,883,850.2,883z"/>
	<path class="st4" d="M874.1,883.8H867v-8.2c0-0.3-0.1-0.7-0.4-0.9c-0.2-0.3-0.6-0.4-0.9-0.4c-0.3,0-0.7,0.1-0.9,0.4
		c-0.2,0.2-0.4,0.6-0.4,0.9v8.2h-5.3c-0.3,0-0.6,0.1-0.8,0.3c-0.3,0.2-0.4,0.5-0.4,0.9c0.1,0.7,0.6,1.2,1.2,1.2h5.3v23
		c-0.1,1.5,0.2,2.9,0.8,4.3c0.4,0.9,1.1,1.6,1.9,2c0.7,0.3,1.4,0.5,2.1,0.6h1.4c0.6,0,1.3-0.1,1.8-0.4c0.4-0.2,0.7-0.6,0.7-1
		c0-0.3-0.1-0.6-0.3-0.8c-0.2-0.2-0.5-0.4-0.8-0.3c-0.3,0-0.5,0-0.8,0.1c-0.2,0.1-0.5,0.1-0.8,0.1c-0.5,0-1.1-0.1-1.6-0.3
		c-0.6-0.2-1.1-0.7-1.4-1.3c-0.4-1-0.6-2.1-0.5-3.1v-22.8h7.1c0.7,0,1.2-0.5,1.2-1.2c0-0.3-0.1-0.6-0.4-0.9
		C874.7,883.9,874.4,883.8,874.1,883.8z"/>
	<path class="st4" d="M906.6,883c-0.4,0-0.7,0.1-0.9,0.4c-0.2,0.2-0.4,0.6-0.3,0.9v20.1c0,1.7-0.6,3.4-1.7,4.8
		c-1.1,1.6-2.6,2.8-4.3,3.8c-1.7,1-3.6,1.5-5.5,1.5c-3.2,0-5.5-0.9-6.8-2.7c-1.4-2.1-2.1-4.7-2-7.3v-20.1c0-0.3-0.1-0.7-0.3-0.9
		c-0.5-0.5-1.3-0.5-1.9,0c-0.2,0.2-0.4,0.6-0.3,0.9v20.1c0,2.2,0.4,4.4,1.2,6.5c0.8,1.8,2.1,3.3,3.7,4.3c2,1.1,4.2,1.7,6.5,1.6
		c1.6,0,3.2-0.3,4.7-0.9c1.5-0.6,2.9-1.5,4.1-2.5c1.1-0.9,2-2,2.6-3.3v3c0.1,2.5-0.5,4.9-1.6,7.1c-1,2-2.5,3.7-4.4,4.8
		c-2,1.2-4.2,1.8-6.5,1.7c-1.7,0-3.4-0.3-5-0.9c-1.1-0.4-2.2-1-3.3-1.5c-0.3-0.2-0.6-0.3-0.9-0.1c-0.3,0.1-0.6,0.4-0.7,0.7
		c-0.2,0.3-0.2,0.7,0,1c0.2,0.3,0.4,0.6,0.7,0.8c1.2,0.8,2.5,1.4,3.8,1.7c1.7,0.5,3.5,0.7,5.3,0.7c2.7,0,5.4-0.7,7.8-2
		c2.3-1.3,4.2-3.2,5.4-5.5c1.4-2.6,2.1-5.6,2-8.5v-28.6c0-0.3-0.1-0.7-0.3-0.9C907.3,883.1,907,883,906.6,883z"/>
	<path class="st1" d="M431,731c-1.2-2.2-2.9-4.1-4.9-5.6c-1.8-1.3-3.8-2.2-5.9-2.9c0.6-0.2,1.1-0.5,1.6-0.8c2.4-1.3,4.4-3.3,5.7-5.7
		c1.3-2.4,2-5.1,1.9-7.8c0-5.3-1.5-9.5-4.6-12.4s-7.5-4.4-13.2-4.4h-25.1c-2.2,0-4,1.8-4,4v59.8c0,2.2,1.8,4,4,4h25.3
		c2.6,0,5.1-0.3,7.6-1c2.4-0.6,4.7-1.7,6.8-3.2c2.1-1.6,3.8-3.6,4.9-6c1.3-2.9,1.9-6.1,1.8-9.3C433,736.7,432.4,733.7,431,731z
		 M418.3,701.7c1.8,1.8,2.8,4.3,2.8,7.6c0,3.6-1,6.2-3,8.1c-2,1.8-4.6,2.8-7.3,2.8H391V699h19.6C413.9,699,416.4,699.9,418.3,701.7
		L418.3,701.7z M420.9,748.6c-2.6,2-5.9,3-9.2,2.9H391v-23.7h20.3c2.2,0,4.3,0.3,6.3,1c2,0.6,3.7,1.9,5,3.5c1.3,1.7,1.9,4.1,1.9,7.2
		C424.5,743.7,423.3,746.7,420.9,748.6L420.9,748.6z"/>
	<path class="st1" d="M448,708.3c-1.1,0-2.1,0.4-2.9,1.2c-0.7,0.7-1.1,1.8-1.1,2.8v42.8c0,1,0.4,2.1,1.1,2.8
		c0.7,0.8,1.8,1.2,2.9,1.2c1,0,2-0.4,2.8-1.2c0.7-0.7,1.1-1.8,1.1-2.8v-42.8c0-1-0.4-2.1-1.1-2.8C450,708.7,449,708.3,448,708.3z"/>
	<path class="st1" d="M447.9,701.8c1.3,0.1,2.5-0.3,3.5-1c0.9-0.8,1.3-1.9,1.2-3v-1.4c0.1-1.1-0.3-2.2-1.2-3c-1-0.7-2.2-1.1-3.5-1
		c-1.3-0.1-2.5,0.3-3.6,1c-0.9,0.7-1.4,1.9-1.3,3v1.4c-0.1,1.1,0.3,2.2,1.2,3C445.4,701.6,446.6,701.9,447.9,701.8z"/>
	<path class="st1" d="M475.5,756.7c3.9,2.3,8.3,3.4,12.8,3.4c4.5,0.1,8.9-1.1,12.7-3.4c3.8-2.3,6.9-5.5,9-9.3
		c4.4-8.4,4.4-18.5,0-26.9c-2.1-3.8-5.2-7-9-9.3c-3.8-2.3-8.2-3.5-12.7-3.4c-4.5-0.1-8.9,1.1-12.8,3.4c-3.8,2.2-6.9,5.4-9,9.3
		c-4.4,8.4-4.4,18.5,0,26.9C468.6,751.2,471.7,754.4,475.5,756.7z M473.1,724.1c1.5-2.7,3.6-5,6.2-6.7c5.4-3.3,12.2-3.3,17.6,0
		c2.6,1.6,4.7,4,6.2,6.7c3,6.2,3,13.4,0,19.6c-1.4,2.7-3.6,5.1-6.2,6.7c-5.4,3.3-12.2,3.3-17.6,0c-2.6-1.7-4.8-4-6.2-6.7
		C470,737.6,470,730.3,473.1,724.1z"/>
	<path class="st1" d="M564.5,757.9c0.7-0.8,1.1-1.8,1.1-2.8v-26.2c0-2.4,0.7-4.7,1.9-6.7c2.7-4.2,7.4-6.7,12.4-6.7
		c2.4-0.1,4.8,0.5,6.8,1.8c1.7,1.2,2.9,2.9,3.6,4.9c0.7,2.2,1.1,4.4,1.1,6.7v26.2c0,1,0.4,2.1,1.1,2.8c0.7,0.8,1.7,1.2,2.8,1.2
		c1.1,0,2.1-0.4,2.8-1.2c0.7-0.7,1.1-1.8,1.1-2.8v-26.4c0-3.5-0.5-7-1.6-10.3c-1-2.9-2.8-5.5-5.3-7.3c-2.5-1.8-5.8-2.8-10.1-2.8
		c-2.6,0-5.2,0.6-7.6,1.6c-2.4,1-4.5,2.4-6.5,4.2c-1.6,1.3-2.9,3-3.8,4.9c-0.9-2.9-2.6-5.4-4.9-7.3c-2.7-2.2-6.3-3.3-10.7-3.3
		c-2.3,0-4.5,0.4-6.6,1.2c-3.9,1.6-7.2,4.3-9.6,7.8v-4.3c0-1.1-0.4-2.1-1.1-2.8c-0.7-0.8-1.8-1.2-2.8-1.1c-1,0-2,0.4-2.8,1.1
		c-0.7,0.8-1.1,1.8-1.1,2.8v42.1c0,1,0.4,2.1,1.1,2.8c1.5,1.5,3.9,1.6,5.5,0.1c0,0,0,0,0.1-0.1c0.7-0.7,1.1-1.8,1.1-2.8v-26.5
		c0-2.3,0.7-4.6,1.9-6.6c2.7-4.1,7.3-6.6,12.2-6.6c2.3-0.1,4.6,0.5,6.6,1.8c1.6,1.2,2.8,2.9,3.5,4.8c0.7,2.1,1.1,4.3,1.1,6.6v26.5
		c0,1,0.4,2,1.1,2.8C560.4,759.5,562.9,759.5,564.5,757.9L564.5,757.9z"/>
	<path class="st1" d="M622.9,756.8c4.2,2.3,8.9,3.4,13.6,3.3c3.4,0,6.8-0.7,9.8-2.2c2.8-1.3,5.3-3,7.4-5.2c0.9-0.7,1.5-1.8,1.5-3
		c0-1.8-1.5-3.3-3.3-3.3c-0.9,0-1.8,0.3-2.5,0.9c-0.9,1-1.9,1.9-3,2.7c-1.3,0.9-2.8,1.7-4.3,2.2c-5.1,1.6-10.7,1-15.4-1.6
		c-2.7-1.6-4.9-3.9-6.3-6.7c-1.4-2.6-2.1-5.5-2.2-8.4h35.2c1,0,2-0.3,2.7-1c0.8-0.6,1.2-1.6,1.2-2.6c0-3.4-0.7-6.7-2-9.9
		c-1.2-2.8-3-5.4-5.1-7.5c-2.1-2.1-4.6-3.7-7.3-4.8c-2.7-1.1-5.7-1.7-8.6-1.7c-4,0-7.9,1.1-11.4,3.1c-3.7,2.2-6.7,5.3-8.7,9.1
		c-2.3,4.4-3.5,9.4-3.3,14.4c-0.1,4.6,1,9.2,3.2,13.3C616,751.5,619.1,754.7,622.9,756.8z M623.2,719.5c1.5-1.4,3.2-2.6,5.1-3.3
		c1.8-0.7,3.8-1.1,5.8-1.1c4.8,0,9.3,2.2,12.3,5.9c1.5,2,2.4,4.3,2.6,6.8v0.8h-30.4c0.2-1.2,0.5-2.3,0.9-3.4
		C620.4,723.1,621.6,721.1,623.2,719.5L623.2,719.5z"/>
	<path class="st1" d="M713.9,755.1v-63.6c0-1.1-0.4-2.1-1.1-2.9c-1.6-1.5-4.1-1.5-5.6,0c-0.7,0.8-1.1,1.8-1.1,2.8v24.9
		c-0.9-1.3-2-2.5-3.2-3.5c-7.2-6-17.5-6.7-25.5-1.7c-3.5,2.3-6.3,5.5-8.2,9.2c-4.1,8.5-4.1,18.5,0,27c1.9,3.8,4.7,7,8.3,9.3
		c3.5,2.3,7.6,3.4,11.8,3.4c2.5,0,5-0.5,7.3-1.4c2.2-0.9,4.2-2.1,6-3.7c1.4-1.2,2.6-2.6,3.5-4.1v4.3c0,1,0.4,2.1,1.1,2.8
		c0.7,0.8,1.8,1.2,2.8,1.2c1,0,2-0.4,2.8-1.2C713.5,757.2,713.9,756.2,713.9,755.1z M698.6,750.4c-2.5,1.7-5.5,2.5-8.5,2.5
		c-3,0-6-0.8-8.5-2.5c-2.5-1.7-4.5-4.1-5.8-6.8c-1.4-3-2.2-6.3-2.1-9.6c-0.1-3.4,0.7-6.7,2.1-9.7c1.3-2.7,3.3-5.1,5.8-6.8
		c5.2-3.3,11.8-3.3,17,0c2.5,1.7,4.5,4,5.8,6.8c2.8,6.2,2.8,13.3,0,19.4C703.1,746.4,701.1,748.7,698.6,750.4L698.6,750.4z"/>
	<path class="st1" d="M731.7,708.3c-1.1,0-2.1,0.4-2.8,1.2c-0.7,0.7-1.1,1.8-1.1,2.8v42.8c0,1,0.4,2.1,1.1,2.8
		c0.7,0.8,1.8,1.2,2.8,1.2c1,0,2-0.4,2.8-1.2c0.7-0.7,1.1-1.8,1.1-2.8v-42.8c0-1-0.4-2.1-1.1-2.8
		C733.8,708.7,732.8,708.3,731.7,708.3z"/>
	<path class="st1" d="M731.7,701.8c1.3,0.1,2.5-0.3,3.5-1c0.9-0.8,1.3-1.9,1.2-3v-1.4c0.1-1.1-0.3-2.2-1.2-3c-1-0.7-2.2-1.1-3.5-1
		c-1.3-0.1-2.5,0.3-3.6,1c-0.9,0.7-1.4,1.9-1.3,3v1.4c-0.1,1.1,0.3,2.2,1.2,3C729.1,701.6,730.4,701.9,731.7,701.8z"/>
	<path class="st1" d="M758.4,756.6c3.9,2.3,8.3,3.5,12.8,3.4c3.1,0,6.3-0.4,9.3-1.3c2.4-0.7,4.6-1.8,6.6-3.2
		c1.6-1.3,2.4-2.5,2.4-3.8c0-1-0.3-1.9-0.9-2.6c-0.7-0.7-1.6-1.1-2.6-1.1c-1,0-1.9,0.3-2.6,1c-0.7,0.8-1.6,1.4-2.5,1.9
		c-1.1,0.6-2.2,1-3.4,1.4c-1.8,0.4-3.6,0.6-5.4,0.6c-3.2,0.1-6.4-0.8-9.2-2.5c-2.6-1.7-4.8-4-6.2-6.8c-1.5-3-2.3-6.3-2.2-9.7
		c-0.1-3.4,0.7-6.7,2.3-9.7c1.5-2.8,3.7-5.1,6.3-6.8c2.8-1.7,6-2.6,9.3-2.5c1.5,0,3,0.1,4.5,0.4c1.2,0.2,2.3,0.5,3.4,1
		c0.7,0.4,1.4,0.8,2,1.4c0.5,0.5,1,0.9,1.5,1.3c0.6,0.4,1.4,0.6,2.1,0.5c0.9,0,1.9-0.4,2.4-1.2c0.6-0.7,0.9-1.6,0.9-2.5
		c-0.1-1.7-0.9-3.2-2.3-4.2c-1.9-1.4-4-2.4-6.3-2.9c-2.9-0.7-6-1.1-9-1.1c-9.1-0.2-17.5,4.8-21.7,12.8c-2.2,4.1-3.2,8.7-3.2,13.3
		c-0.1,4.6,0.9,9.2,3,13.3C751.8,751.1,754.8,754.4,758.4,756.6z"/>
	<path class="st1" d="M808.3,756.6c3.5,2.3,7.6,3.5,11.8,3.4c2.5,0,5-0.5,7.3-1.4c2.1-0.9,4.1-2.1,5.9-3.6c1.4-1.2,2.6-2.5,3.6-4
		v4.1c0,1,0.4,2.1,1.1,2.8c0.7,0.8,1.8,1.2,2.8,1.2c1,0,2-0.4,2.8-1.2c0.7-0.7,1.1-1.8,1.1-2.8v-42.6c0-2.1-1.6-3.8-3.7-3.9
		c-0.1,0-0.1,0-0.2,0c-1.1,0-2.1,0.4-2.8,1.1c-0.7,0.7-1.1,1.7-1.1,2.8v3.8c-0.9-1.2-1.9-2.4-3-3.4c-1.8-1.6-3.9-2.8-6.2-3.7
		c-2.5-0.9-5.1-1.4-7.7-1.4c-4.1-0.1-8.2,1.1-11.7,3.3c-3.5,2.3-6.3,5.4-8.2,9.2c-2.1,4.2-3.1,8.8-3,13.5c-0.1,4.7,0.9,9.3,3,13.4
		C801.9,751.1,804.8,754.3,808.3,756.6z M806.7,724.2c1.3-2.7,3.3-5,5.8-6.7c2.5-1.7,5.5-2.5,8.5-2.5c3-0.1,6,0.8,8.5,2.5
		c2.5,1.7,4.5,4,5.8,6.8c1.5,3,2.2,6.3,2.1,9.6c0.1,3.4-0.7,6.7-2.1,9.7c-1.3,2.7-3.3,5.1-5.8,6.8c-2.5,1.7-5.5,2.6-8.5,2.5
		c-3,0.1-6-0.8-8.6-2.5c-2.5-1.7-4.5-4.1-5.8-6.8c-1.4-3-2.1-6.4-2.1-9.7C804.5,730.5,805.2,727.2,806.7,724.2z"/>
	<path class="st1" d="M863.6,759.1c2.2,0,4-1.8,4-4v-63.6c0-1-0.4-2-1.1-2.8c-0.7-0.8-1.7-1.2-2.8-1.2c-2.2,0-4,1.8-4,4v63.6
		c0,1,0.4,2.1,1.1,2.8C861.6,758.7,862.6,759.1,863.6,759.1z"/>
	<path class="st1" d="M426.4,794c-1.1,0-2.1,0.4-2.9,1.1c-0.7,0.7-1.1,1.7-1.1,2.8v3.8c-0.9-1.2-1.9-2.4-3-3.4
		c-1.8-1.6-4-2.8-6.2-3.7c-2.5-0.9-5.1-1.4-7.7-1.4c-4.1-0.1-8.2,1.1-11.6,3.3c-3.5,2.3-6.3,5.4-8.2,9.2c-2.1,4.2-3.1,8.8-3,13.5
		c-0.1,4.7,0.9,9.3,3,13.4c1.9,3.8,4.7,7,8.3,9.3c3.5,2.3,7.6,3.5,11.8,3.4c2.5,0,5-0.5,7.3-1.4c2.1-0.9,4.1-2.1,5.9-3.6
		c1.4-1.2,2.6-2.5,3.6-4v4.1c0,1,0.4,2.1,1.1,2.8c0.7,0.8,1.8,1.2,2.9,1.2c1,0,2-0.4,2.8-1.2c0.7-0.7,1.1-1.8,1.1-2.8v-42.6
		c0-2.1-1.6-3.8-3.7-3.9C426.5,794,426.5,794,426.4,794L426.4,794z M415,835.8c-2.5,1.7-5.5,2.6-8.5,2.5c-3,0.1-6-0.8-8.5-2.5
		c-2.5-1.7-4.5-4.1-5.8-6.8c-1.4-3-2.1-6.4-2.1-9.7c-0.1-3.3,0.7-6.7,2.1-9.7c1.3-2.7,3.3-5,5.9-6.7c2.5-1.6,5.5-2.5,8.5-2.5
		c3-0.1,6,0.8,8.5,2.5c2.5,1.7,4.5,4.1,5.8,6.8c1.5,3,2.2,6.3,2.1,9.6c0.1,3.4-0.7,6.7-2.1,9.7C419.5,831.7,417.5,834,415,835.8z"/>
	<path class="st1" d="M477.9,807c0.8,2.1,1.1,4.4,1.1,6.7v26.8c0,1,0.4,2,1.1,2.8c1.5,1.5,4,1.5,5.5,0c0,0,0,0,0,0
		c0.7-0.7,1.1-1.8,1.1-2.8v-27.1c0.1-3.5-0.5-6.9-1.6-10.2c-1-2.9-2.9-5.5-5.4-7.2c-2.5-1.8-6-2.7-10.3-2.7c-2.3,0-4.5,0.4-6.7,1.2
		c-2.1,0.8-4,1.9-5.8,3.2c-1.7,1.3-3.2,2.8-4.4,4.6c-0.1,0.2-0.2,0.3-0.3,0.5v-4.3c0-1.1-0.4-2.1-1.1-2.8c-0.7-0.8-1.8-1.2-2.8-1.1
		c-1,0-2,0.4-2.8,1.1c-0.7,0.8-1.1,1.8-1.1,2.8v42.1c0,1,0.4,2.1,1.1,2.8c1.5,1.5,3.9,1.6,5.4,0.1c0,0,0,0,0.1-0.1
		c0.7-0.7,1.1-1.8,1.1-2.8v-26.9c0-2.4,0.7-4.7,2-6.7c1.4-2,3.2-3.7,5.4-4.8c2.3-1.2,4.9-1.8,7.4-1.8c2.5-0.1,4.9,0.5,7,1.8
		C475.9,803.3,477.2,805,477.9,807z"/>
	<path class="st1" d="M521.5,845.4c2.5,0,5-0.5,7.3-1.4c2.2-0.9,4.2-2.1,5.9-3.7c1.4-1.2,2.6-2.6,3.5-4.1v4.3c0,1,0.4,2.1,1.1,2.8
		c0.7,0.8,1.8,1.2,2.9,1.2c1,0,2-0.4,2.7-1.2c0.7-0.7,1.1-1.8,1.1-2.8v-63.6c0-1.1-0.4-2.1-1.1-2.9c-0.7-0.7-1.7-1.1-2.8-1.1
		c-1.1,0-2.1,0.4-2.9,1.2c-0.7,0.7-1.1,1.8-1.1,2.8v24.9c-0.9-1.3-2-2.5-3.2-3.5c-7.2-6-17.5-6.7-25.5-1.7c-3.5,2.3-6.3,5.5-8.2,9.2
		c-4.1,8.5-4.1,18.5,0,27c1.9,3.8,4.7,7,8.3,9.3C513.2,844.3,517.3,845.5,521.5,845.4z M505.9,819.3c-0.1-3.4,0.7-6.7,2.1-9.7
		c1.3-2.7,3.3-5.1,5.8-6.8c5.2-3.3,11.8-3.3,17,0c2.5,1.7,4.5,4,5.8,6.8c2.8,6.2,2.8,13.3,0,19.4c-1.3,2.7-3.3,5.1-5.8,6.8
		c-2.5,1.7-5.5,2.5-8.5,2.5c-3,0-6-0.8-8.5-2.5c-2.5-1.7-4.5-4.1-5.9-6.8C506.6,825.9,505.9,822.7,505.9,819.3L505.9,819.3z"/>
	<path class="st1" d="M641.7,827.7c2.2-5.4,3.3-11.2,3.2-17.1c0-4.4-0.6-8.7-1.8-12.9c-1.1-3.9-2.9-7.6-5.4-10.9
		c-2.4-3.1-5.4-5.7-8.9-7.4c-3.9-1.8-8.2-2.8-12.5-2.7h-24.1c-2.2,0-4,1.8-4,4v59.7c0,2.2,1.8,4,4,4h24.1c6.4,0,11.7-1.5,15.9-4.5
		C636.5,836.9,639.8,832.6,641.7,827.7z M627.5,833.3c-3.1,2.4-7.2,3.6-12.2,3.6h-19v-52.6h19c3.3-0.1,6.6,0.6,9.6,2.1
		c2.6,1.4,4.9,3.4,6.6,5.8c1.8,2.6,3,5.4,3.8,8.4c0.8,3.3,1.2,6.6,1.2,10c0,4.5-0.7,8.9-2.2,13.2C633,827.6,630.7,830.9,627.5,833.3
		L627.5,833.3z"/>
	<path class="st1" d="M684.1,844c2.1-0.9,4.1-2.1,5.9-3.6c1.4-1.2,2.6-2.5,3.6-4v4.1c0,1,0.4,2.1,1.1,2.8c0.7,0.8,1.8,1.2,2.8,1.2
		c1,0,2-0.4,2.8-1.2c0.7-0.7,1.1-1.8,1.1-2.8v-42.6c0-2.1-1.6-3.8-3.7-3.9c-0.1,0-0.1,0-0.2,0c-1.1,0-2.1,0.4-2.8,1.1
		c-0.7,0.7-1.1,1.7-1.1,2.8v3.8c-0.9-1.2-1.9-2.4-3-3.4c-1.8-1.6-3.9-2.8-6.2-3.7c-2.5-0.9-5.1-1.4-7.7-1.4
		c-4.1-0.1-8.2,1.1-11.7,3.3c-3.5,2.3-6.3,5.4-8.2,9.2c-2.1,4.2-3.1,8.8-3,13.5c-0.1,4.7,0.9,9.3,3,13.4c1.9,3.8,4.7,7,8.3,9.3
		c3.5,2.3,7.6,3.5,11.8,3.4C679.3,845.4,681.8,844.9,684.1,844z M663.2,828.9c-1.4-3-2.1-6.4-2.1-9.7c-0.1-3.3,0.7-6.7,2.1-9.7
		c1.3-2.7,3.3-5,5.8-6.7c2.5-1.6,5.5-2.5,8.5-2.5c3-0.1,6,0.8,8.5,2.5c2.5,1.7,4.5,4,5.8,6.8c1.5,3,2.2,6.3,2.1,9.6
		c0.1,3.4-0.7,6.7-2.1,9.7c-1.3,2.7-3.3,5.1-5.8,6.8c-2.5,1.7-5.5,2.6-8.5,2.5c-3,0.1-6-0.8-8.5-2.5
		C666.5,834,664.5,831.7,663.2,828.9L663.2,828.9z"/>
	<path class="st1" d="M728.4,844.3c1.3,0.1,2.4,0.2,3.3,0.2c1.6,0,3.2-0.4,4.5-1.2c1.7-0.7,2.5-2.7,1.7-4.5
		c-0.1-0.3-0.3-0.6-0.5-0.9c-0.4-0.6-1.1-0.9-1.8-0.9c-0.6,0-1.2,0.1-1.7,0.3c-0.5,0.2-1.1,0.4-1.7,0.3c-0.7,0-1.5-0.2-2.2-0.4
		c-0.8-0.3-1.4-0.9-1.8-1.6c-0.5-1.1-0.8-2.3-0.7-3.5v-30.3h8.8c1,0,1.9-0.3,2.6-1c0.7-0.7,1-1.5,1-2.5c0-1-0.3-1.9-1-2.6
		c-0.7-0.7-1.6-1.1-2.6-1.1h-8.8v-9.2c0-1-0.4-2-1.1-2.8c-0.7-0.8-1.7-1.2-2.7-1.2c-2.2,0-4,1.8-4,4v9.2h-6.2c-0.9,0-1.9,0.4-2.6,1
		c-1.4,1.3-1.5,3.5-0.2,4.9c0.1,0.1,0.1,0.1,0.2,0.2c0.7,0.7,1.6,1.1,2.6,1.1h6.3v30.7c-0.1,2.4,0.3,4.7,1.3,6.9
		c0.7,1.5,1.8,2.7,3.2,3.5C725.7,843.7,727.1,844.1,728.4,844.3z"/>
	<path class="st1" d="M795.8,797.9c0-2.1-1.6-3.8-3.7-3.9c0,0-0.1,0-0.1,0c-1.1,0-2.1,0.4-2.8,1.1c-0.7,0.7-1.1,1.7-1.1,2.8v3.8
		c-0.9-1.3-1.9-2.4-3-3.4c-1.8-1.6-3.9-2.8-6.2-3.7c-2.5-0.9-5.1-1.4-7.7-1.4c-4.1-0.1-8.2,1.1-11.7,3.3c-3.5,2.3-6.3,5.4-8.2,9.2
		c-2.1,4.2-3.1,8.8-3,13.5c-0.1,4.7,0.9,9.3,3,13.4c1.9,3.8,4.7,7,8.3,9.3c3.5,2.3,7.6,3.5,11.8,3.4c2.5,0,5-0.5,7.3-1.4
		c2.1-0.9,4.1-2.1,5.9-3.6c1.3-1.2,2.5-2.5,3.4-4v4.1c0,1,0.4,2.1,1.1,2.8c0.7,0.8,1.8,1.2,2.8,1.2c1,0,2-0.4,2.8-1.2
		c0.7-0.7,1.1-1.8,1.1-2.8L795.8,797.9z M780.6,835.8c-2.5,1.7-5.5,2.6-8.5,2.5c-3,0.1-6-0.8-8.6-2.5c-2.5-1.7-4.5-4.1-5.8-6.8
		c-1.4-3-2.1-6.4-2.1-9.7c-0.1-3.3,0.7-6.7,2.1-9.7c1.3-2.7,3.3-5,5.8-6.7c2.5-1.6,5.5-2.5,8.5-2.5c3-0.1,6,0.8,8.5,2.5
		c2.5,1.7,4.5,4.1,5.8,6.8c1.4,3,2.2,6.3,2.1,9.6c0.1,3.4-0.7,6.7-2.1,9.7C785.1,831.7,783.1,834,780.6,835.8z"/>
	<path class="st1" d="M875.4,836.8h-29.3v-56.1c0-2.2-1.8-4-4-4c-1.1-0.1-2.2,0.4-3,1.2c-0.8,0.7-1.2,1.7-1.2,2.8v59.8
		c0,1,0.4,2.1,1.1,2.8c0.7,0.8,1.8,1.2,2.9,1.2h33.5c1,0,2-0.4,2.8-1.1c0.8-0.7,1.2-1.7,1.2-2.7c0-1-0.4-2-1.2-2.8
		C877.4,837.2,876.4,836.8,875.4,836.8z"/>
	<path class="st1" d="M930.3,794c-1.1,0-2.1,0.4-2.8,1.1c-0.7,0.7-1.1,1.7-1.1,2.8v3.8c-0.9-1.3-1.9-2.4-3-3.4
		c-1.8-1.6-4-2.8-6.2-3.7c-2.5-0.9-5.1-1.4-7.7-1.4c-4.1-0.1-8.2,1.1-11.7,3.3c-3.5,2.3-6.3,5.4-8.2,9.2c-2.1,4.2-3.1,8.8-3,13.5
		c-0.1,4.7,0.9,9.3,3,13.4c1.9,3.8,4.7,7,8.3,9.3c3.5,2.3,7.6,3.5,11.8,3.4c2.5,0,5-0.5,7.3-1.4c2.1-0.9,4.1-2.1,5.9-3.6
		c1.4-1.2,2.6-2.5,3.6-4v4.1c0,1,0.4,2.1,1.1,2.8c0.7,0.8,1.8,1.2,2.8,1.2c1,0,2-0.4,2.8-1.2c0.7-0.7,1.1-1.8,1.1-2.8v-42.6
		c0-2.1-1.7-3.8-3.8-3.9C930.5,794,930.4,794,930.3,794L930.3,794z M918.9,835.8c-2.5,1.7-5.5,2.6-8.5,2.5c-3,0.1-6-0.8-8.5-2.5
		c-2.5-1.7-4.5-4.1-5.8-6.8c-1.4-3-2.1-6.4-2.1-9.7c-0.1-3.3,0.7-6.7,2.1-9.7c1.3-2.7,3.3-5,5.8-6.7c2.5-1.6,5.5-2.5,8.5-2.5
		c3-0.1,6,0.8,8.5,2.5c2.5,1.7,4.5,4.1,5.8,6.8c1.5,3,2.2,6.3,2.1,9.6c0.1,3.4-0.7,6.7-2.1,9.7C923.4,831.7,921.4,834,918.9,835.8
		L918.9,835.8z"/>
	<path class="st1" d="M993.2,805.7c-1.9-3.7-4.8-6.9-8.3-9.1c-3.5-2.2-7.6-3.4-11.8-3.3c-2.2,0-4.3,0.4-6.3,1.1
		c-2,0.7-3.8,1.6-5.5,2.8c-1.6,1.1-3,2.5-4.2,4.1c-0.3,0.4-0.6,0.9-0.9,1.4v-25.7c0-1-0.4-2-1.1-2.8c-0.7-0.8-1.7-1.2-2.8-1.2
		c-1,0-2,0.4-2.8,1.2c-0.7,0.7-1.1,1.8-1.1,2.8V841c0,1.1,0.4,2.1,1.1,2.8c0.7,0.7,1.7,1.1,2.8,1.1c1.1,0,2.1-0.4,2.8-1.2
		c0.7-0.8,1.1-1.8,1.1-2.8v-4.3c0.1,0.2,0.2,0.3,0.4,0.5c2.6,3.3,6.1,5.7,10,7.1c2.2,0.8,4.4,1.1,6.7,1.1c4.1,0,8.2-1.2,11.7-3.5
		c3.5-2.3,6.3-5.6,8.2-9.3c2.1-4.2,3.1-8.9,3-13.5C996.3,814.5,995.3,809.9,993.2,805.7z M986.6,828.9c-1.3,2.8-3.3,5.1-5.8,6.9
		c-2.5,1.7-5.5,2.6-8.5,2.5c-3,0.1-6-0.8-8.6-2.5c-2.5-1.7-4.5-4.1-5.8-6.9c-1.4-3.1-2.1-6.4-2.1-9.8c-0.1-3.3,0.6-6.6,2.1-9.6
		c1.3-2.7,3.3-5,5.8-6.7c2.5-1.7,5.5-2.5,8.6-2.5c3-0.1,6,0.8,8.5,2.5c2.5,1.7,4.5,4,5.8,6.7c1.5,3,2.2,6.3,2.1,9.6
		C988.8,822.5,988,825.8,986.6,828.9z"/>
	<path class="st1" d="M195.3,687.6h-57.5c-11.5,0-20.9,9.3-20.9,20.9v186.6c0,11.5,9.3,20.9,20.9,20.9h57.5
		c11.5,0,20.9-9.3,20.9-20.8c0,0,0,0,0,0V708.5C216.1,697,206.8,687.6,195.3,687.6z M191.8,891.4c0,3.6-2.9,6.5-6.6,6.5h-37.4
		c-3.6,0-6.6-2.9-6.6-6.5v-85c0-2.8,1.8-5.3,4.4-6.2l37.3-13.1l0.3-0.1c3.4-1.1,7.1,0.7,8.3,4.1c0.2,0.7,0.3,1.4,0.3,2.1V891.4z
		 M191.8,748.4c0,2.8-1.8,5.3-4.4,6.2l-37.3,12.9l-0.2,0.1c-3.4,1.2-7.2-0.6-8.4-4c-0.2-0.7-0.4-1.4-0.4-2.2v-51.8
		c0-3.6,2.9-6.5,6.6-6.5h37.4c3.6,0,6.6,2.9,6.6,6.5V748.4z"/>
	<path class="st1" d="M322.5,687.5h-60c-11.5,0-20.9,9.3-20.9,20.9V895c0,11.5,9.3,20.9,20.9,20.9l0,0c2.5,0,5-0.4,7.3-1.3l60-22.4
		c8.2-3,13.6-10.8,13.6-19.5V708.4C343.4,696.9,334,687.5,322.5,687.5z M317.7,870.2c0,2.8-1.8,5.3-4.4,6.2l-37.3,13.1
		c-3.4,1.3-7.2-0.4-8.5-3.8c-0.3-0.7-0.4-1.5-0.4-2.3V709.6c0-3.6,2.9-6.5,6.6-6.5h37.4c3.6,0,6.6,2.9,6.6,6.5L317.7,870.2z"/>
</g>
</svg>
